<?xml version="1.0" encoding="utf-8"?>
<!-- Generator: Adobe Illustrator 16.0.3, SVG Export Plug-In . SVG Version: 6.00 Build 0)  -->
<!DOCTYPE svg PUBLIC "-//W3C//DTD SVG 1.1//EN" "http://www.w3.org/Graphics/SVG/1.1/DTD/svg11.dtd">
<svg version="1.1" id="Layer_1" xmlns="http://www.w3.org/2000/svg" xmlns:xlink="http://www.w3.org/1999/xlink" x="0px" y="0px"
	 width="543px" height="74px" viewBox="34.5 359 543 74" enable-background="new 34.5 359 543 74" xml:space="preserve">
<g>
	<path fill="#FFFFFF" d="M47.398,393.899c-2.295,0-3.485-0.085-5.355-0.085c-1.955,0-4.25,0.085-6.63,0.085
		c-0.17,0-0.17-0.51,0.085-0.51c2.125-0.17,3.23-0.34,3.91-0.765c0.68-0.34,1.105-1.53,1.105-11.9v-7.65
		c0-10.285-0.425-11.475-1.105-11.9c-0.595-0.34-1.785-0.51-3.91-0.765c-0.17-0.085-0.17-0.51-0.085-0.51
		c2.38,0,4.675,0.085,6.63,0.085c1.955,0,3.06-0.085,5.355-0.085c6.97,0,9.945,4.165,9.945,7.395s-2.21,5.865-5.525,7.565
		c5.61,1.275,8.67,4.505,8.67,8.925C60.403,388.969,56.578,393.899,47.398,393.899z M47.313,361.004c-1.7,0-3.23,0.17-3.315,0.425
		c-0.17,0.17-0.34,2.38-0.34,8.585c0,3.06,0.085,4.59,0.17,4.675c0.17,0.17,1.53,0.34,3.57,0.34c4.165,0,6.29-2.635,6.29-6.63
		C53.603,363.299,50.203,361.004,47.313,361.004z M46.718,376.049c-1.7,0-2.89,0.085-2.975,0.17s-0.17,1.275-0.17,7.395
		c0,5.185,0.255,7.735,0.595,8.16c0.34,0.51,2.38,0.935,4.675,0.935c4.25,0,7.735-2.805,7.735-7.65
		C56.663,379.534,52.328,376.049,46.718,376.049z"/>
	<path fill="#FFFFFF" d="M105.793,393.729c-3.23,0-4.675-0.425-6.715-1.785c-2.635-1.87-5.525-5.78-9.69-12.92
		c-2.635,0.085-4.76,0.085-6.8-0.085v1.7c0,10.285,0.51,11.475,1.19,11.9c0.68,0.34,2.21,0.51,4.505,0.765
		c0.255,0.085,0.255,0.51,0.085,0.51c-2.55,0-11.22,0-13.685,0c-0.17,0-0.17-0.51,0.085-0.51c2.04-0.17,2.975-0.34,3.57-0.765
		c0.595-0.34,1.105-1.53,1.105-11.9v-7.65c0-10.285-0.51-11.475-1.105-11.9c-0.595-0.34-1.53-0.51-3.57-0.765
		c-0.17-0.085-0.17-0.51-0.085-0.51c2.295,0,4.42,0.085,6.375,0.085s3.995-0.085,6.29-0.085c7.82,0,11.135,4.335,11.135,8.33
		c0,4.165-2.635,7.395-6.29,9.605c6.97,10.455,11.305,14.96,14.96,14.96c0.51,0,1.19,0,1.53-0.085c0.17,0,0.17,0.595,0.085,0.595
		C107.833,393.729,107.068,393.729,105.793,393.729z M87.348,361.174c-1.785,0-3.995,0.255-4.165,0.51
		c-0.17,0.34-0.595,3.91-0.595,11.475c0,3.145,0.085,4.165,0.34,4.335c0.425,0.34,2.465,0.595,4.93,0.595
		c4.25,0,6.885-3.74,6.885-7.82C94.658,365.254,92.278,361.174,87.348,361.174z"/>
	<path fill="#FFFFFF" d="M116.588,393.899c-0.17,0-0.17-0.51,0.085-0.51c2.04-0.17,3.315-0.34,3.995-0.765
		c0.68-0.34,1.105-1.53,1.105-11.9v-7.65c0-10.285-0.425-11.475-1.105-11.9c-0.595-0.34-1.955-0.51-3.995-0.765
		c-0.255-0.085-0.255-0.51-0.085-0.51c2.55,0,11.135,0,13.6,0c0.17,0,0.17,0.51-0.085,0.51c-2.04,0.17-3.4,0.34-3.995,0.765
		c-0.595,0.34-1.105,1.53-1.105,11.9v7.65c0,10.285,0.51,11.475,1.105,11.9c0.595,0.34,1.955,0.51,3.995,0.765
		c0.17,0.085,0.17,0.51,0.085,0.51C127.723,393.899,119.138,393.899,116.588,393.899z"/>
	<path fill="#FFFFFF" d="M176.938,378.344c-2.04,0.255-2.72,0.34-3.315,0.765c-0.425,0.34-0.765,1.36-0.595,11.73v0.51
		c-2.89,1.7-6.885,2.89-11.22,2.89c-9.945,0-18.105-7.565-18.105-16.83c0-8.925,6.29-17.68,17.935-17.68
		c5.525,0,8.585,1.87,10.37,1.445c0.255-0.085,0.34,0.085,0.34,0.17c0.085,1.87,0.255,4.675,0.255,7.565
		c0,0.255-0.595,0.255-0.595-0.085c-0.17-1.445-0.935-3.145-2.04-4.165c-1.87-1.785-5.355-3.655-8.925-3.655
		c-9.435,0-13.6,7.48-13.6,14.875c0,8.755,6.205,16.83,16.15,16.83c2.295,0,4.675-0.51,6.205-1.19
		c-0.085-10.965-0.34-12.155-0.765-12.325c-0.595-0.34-1.955-0.51-3.995-0.765c-0.255,0-0.255-0.51-0.085-0.51
		c2.55,0,9.69,0,12.155,0C177.108,377.834,177.193,378.344,176.938,378.344z"/>
	<path fill="#FFFFFF" d="M214.423,393.899c-0.17,0-0.17-0.51,0.085-0.51c2.04-0.17,2.89-0.34,3.57-0.765
		c0.595-0.34,1.105-1.53,1.105-11.9v-3.485h-20.315v3.485c0,10.285,0.425,11.475,1.105,11.9c0.595,0.34,1.53,0.51,3.57,0.765
		c0.17,0.085,0.17,0.51,0.085,0.51c-2.465,0-10.285,0-12.665,0c-0.17,0-0.17-0.51,0.085-0.51c2.04-0.17,2.975-0.34,3.57-0.765
		c0.595-0.34,1.105-1.53,1.105-11.9v-7.65c0-10.285-0.51-11.475-1.105-11.9c-0.595-0.34-1.53-0.51-3.57-0.765
		c-0.17-0.085-0.17-0.51-0.085-0.51c2.465,0,10.285,0,12.665,0c0.17,0,0.17,0.51-0.085,0.51c-2.04,0.17-2.89,0.34-3.57,0.765
		c-0.68,0.34-1.105,1.53-1.105,11.9v2.805h20.315v-2.805c0-10.285-0.51-11.475-1.105-11.9c-0.68-0.34-1.53-0.51-3.57-0.765
		c-0.17-0.085-0.17-0.51-0.085-0.51c2.465,0,10.285,0,12.665,0c0.17,0,0.17,0.51-0.085,0.51c-2.04,0.17-2.89,0.34-3.57,0.765
		c-0.595,0.34-1.105,1.53-1.105,11.9v7.65c0,10.285,0.51,11.475,1.105,11.9c0.68,0.34,1.53,0.51,3.57,0.765
		c0.17,0.085,0.17,0.51,0.085,0.51C224.623,393.899,216.888,393.899,214.423,393.899z"/>
	<path fill="#FFFFFF" d="M258.793,393.899c-0.17,0-0.17-0.51,0-0.51c1.615-0.17,2.89-0.17,2.89-1.02s-1.02-3.74-4.165-11.56
		l-0.085-0.17h-10.625l-0.085,0.17c-2.635,7.055-3.57,10.285-3.57,11.305c0,0.935,1.19,1.02,3.315,1.275
		c0.17,0.085,0.17,0.51,0,0.51c-1.53,0-7.395,0-9.86,0c-0.17,0-0.255-0.51,0-0.51c1.53-0.17,2.55-0.34,3.315-0.85
		c0.51-0.34,1.445-1.445,5.185-11.73l2.805-7.65c1.615-4.42,3.315-8.925,4.59-13.005c0.17-0.34,0.595-0.34,0.68,0
		c1.53,4.505,2.89,8.245,4.845,13.005l2.89,7.65c4.08,10.285,4.76,11.39,5.525,11.9c0.85,0.51,1.7,0.595,3.145,0.765
		c0.17,0.085,0.17,0.51,0,0.51C267.208,393.899,261.258,393.899,258.793,393.899z M252.163,365.934l-4.845,13.345h9.69
		L252.163,365.934z"/>
	<path fill="#FFFFFF" d="M310.982,393.899c-0.17,0-0.255-0.51,0-0.51c1.445-0.17,2.552-0.17,3.062-0.595
		c0.51-0.34,0.85-1.7-0.34-11.985l-1.19-12.325l-11.986,25.585c-0.085,0.085-0.34,0.17-0.51-0.085l-12.92-25.33l-0.85,11.815
		c-0.935,10.54-0.255,11.73,0.34,12.155c0.51,0.425,1.955,0.51,3.315,0.68c0.17,0.085,0.17,0.51,0,0.51c-2.55,0-8.5,0-11.05,0
		c-0.17,0-0.085-0.51,0.085-0.51c2.125-0.17,3.23-0.34,3.825-0.85c0.425-0.34,1.105-1.445,1.87-11.73l0.51-7.65
		c0.255-4.42,0.595-8.925,0.68-13.005c0.085-0.255,0.595-0.34,0.68-0.085l14.705,29.07l13.6-29.07
		c0.085-0.17,0.595-0.17,0.595,0.085c0.257,4.505,0.512,8.245,1.021,13.005l0.765,7.65c1.19,10.285,1.445,11.475,2.21,11.9
		c0.682,0.34,1.53,0.51,3.655,0.765c0.17,0.085,0.34,0.51,0.17,0.51C320.673,393.899,313.362,393.899,310.982,393.899z"/>
	<path fill="#FFFFFF" d="M382.298,360.919c-0.51,0.255-1.19,1.02-4.93,7.31l-2.807,4.675c-1.273,2.04-2.55,4.08-3.653,6.035v1.7
		c0,10.37,0.51,11.56,1.104,11.9s1.955,0.51,3.995,0.765c0.17,0.085,0.17,0.51,0.085,0.51c-2.465,0-11.135,0-13.6,0
		c-0.171,0-0.171-0.51,0.085-0.51c2.04-0.17,3.398-0.34,3.994-0.765c0.596-0.34,1.104-1.53,1.104-11.9v-1.53
		c-1.189-2.04-2.295-3.995-3.74-6.29l-2.89-4.675c-3.995-6.29-4.42-7.14-5.101-7.395c-0.851-0.34-1.614-0.34-3.061-0.425
		c-0.255,0-0.17-0.51,0-0.51c2.465,0,8.67,0,11.22,0c0.171,0,0.171,0.51,0,0.51c-1.188,0.085-2.55,0.085-2.89,0.34
		c-0.425,0.255,0,1.105,3.825,7.99l5.185,8.755l5.78-9.605c3.74-5.865,3.57-6.715,3.229-6.97c-0.426-0.17-1.87-0.34-3.229-0.425
		c-0.17,0-0.17-0.51,0-0.51c1.53,0,7.396,0,9.945,0c0.17,0,0.17,0.51,0,0.51C384.168,360.579,383.147,360.579,382.298,360.919z"/>
	<path fill="#FFFFFF" d="M411.708,394.154c-9.605,0-17-7.395-17-16.83c0-9.01,7.14-17.68,17.765-17.68c9.605,0,17,7.395,17,16.83
		C429.473,385.484,422.418,394.154,411.708,394.154z M411.453,361.174c-9.352,0-13.005,7.905-13.005,14.705
		c0,8.5,5.948,16.915,14.278,16.915c9.267,0,12.92-7.905,12.92-14.705C425.732,369.504,419.783,361.174,411.453,361.174z"/>
	<path fill="#FFFFFF" d="M475.033,361.429c-0.427,0.34-0.852,1.445-0.852,11.73v8.755c0,6.29-4.675,12.24-12.92,12.24
		c-8.16,0-13.09-5.355-13.09-12.155v-8.925c0-10.285-0.51-11.475-1.105-11.9c-0.595-0.34-1.528-0.51-3.568-0.765
		c-0.17-0.085-0.17-0.51-0.085-0.51c2.55,0,10.54,0,12.92,0c0.17,0,0.17,0.51-0.085,0.51c-2.04,0.17-3.146,0.34-3.74,0.765
		c-0.68,0.34-1.104,1.53-1.104,11.9v7.905c0,6.46,4.164,11.05,11.051,11.05c6.46,0,9.858-4.675,9.858-10.54v-8.5
		c0-10.285-0.51-11.305-0.85-11.73c-0.595-0.51-1.87-0.68-3.825-0.85c-0.255-0.085-0.17-0.51,0-0.51c2.465,0,8.67,0,11.135,0
		c0.17,0,0.17,0.51,0,0.51C476.647,360.749,475.628,360.919,475.033,361.429z"/>
	<path fill="#FFFFFF" d="M525.268,361.684c-0.425,0.425-1.02,1.19-0.935,11.475l0.085,7.65c0.085,4.42,0,9.01,0.255,13.09
		c0.085,0.255-0.595,0.34-0.85,0.085l-25.926-27.625l0.17,14.45c0.085,9.52,0.767,10.965,1.445,11.56
		c0.51,0.34,2.38,0.85,3.825,0.85c0.17,0,0.17,0.68,0,0.68c-2.72,0-9.605,0-11.985,0c-0.17,0-0.17-0.595,0-0.68
		c2.125-0.17,3.315-0.51,3.825-1.02c0.425-0.425,1.021-1.19,0.852-11.475l-0.087-7.65c-0.085-4.42-0.085-9.01-0.34-13.09
		c0-0.255,0.767-0.34,0.937-0.085l26.01,27.795l-0.17-14.62c-0.085-10.285-0.851-11.05-1.445-11.56
		c-0.595-0.51-1.955-0.765-4.165-0.85c-0.17-0.085-0.17-0.68,0-0.68c2.551,0,9.69,0,12.155,0c0.17,0,0.17,0.595,0,0.68
		C526.883,360.919,525.862,361.174,525.268,361.684z"/>
	<path fill="#FFFFFF" d="M576.522,378.344c-2.04,0.255-2.72,0.34-3.313,0.765c-0.425,0.34-0.767,1.36-0.597,11.73v0.51
		c-2.89,1.7-6.885,2.89-11.22,2.89c-9.944,0-18.104-7.565-18.104-16.83c0-8.925,6.29-17.68,17.935-17.68
		c5.525,0,8.585,1.87,10.37,1.445c0.255-0.085,0.34,0.085,0.34,0.17c0.085,1.87,0.255,4.675,0.255,7.565
		c0,0.255-0.595,0.255-0.595-0.085c-0.17-1.445-0.935-3.145-2.04-4.165c-1.87-1.785-5.354-3.655-8.925-3.655
		c-9.437,0-13.601,7.48-13.601,14.875c0,8.755,6.204,16.83,16.149,16.83c2.295,0,4.675-0.51,6.205-1.19
		c-0.085-10.965-0.34-12.155-0.765-12.325c-0.597-0.34-1.955-0.51-3.995-0.765c-0.255,0-0.255-0.51-0.085-0.51
		c2.55,0,9.688,0,12.153,0C576.692,377.834,576.777,378.344,576.522,378.344z"/>
	<path fill="#FFFFFF" d="M158.918,410.334c-0.34,0.255-0.68,0.85-0.68,7.735v5.95c0,4.25-3.4,8.328-8.925,8.328
		c-5.525,0-9.095-3.653-9.095-8.243v-6.035c0-6.972-0.255-7.65-0.765-7.82c-0.425-0.255-1.02-0.425-2.38-0.595
		c-0.17,0-0.17-0.426,0-0.426c3.315,0,5.78,0,9.18,0c0.085,0,0.085,0.426,0,0.426c-1.36,0.17-2.125,0.34-2.55,0.595
		c-0.425,0.255-0.765,0.85-0.765,7.82v5.1c0,4.42,2.89,7.48,7.31,7.48c4.335,0,6.545-3.23,6.545-7.142v-5.523
		c0-6.972-0.34-7.48-0.68-7.735c-0.425-0.34-1.19-0.51-2.635-0.68c-0.17,0-0.085-0.426,0-0.426c3.4,0,4.59,0,7.905,0
		c0.085,0,0.17,0.426,0,0.426C159.938,409.824,159.258,409.994,158.918,410.334z"/>
	<path fill="#FFFFFF" d="M200.483,410.334c-0.34,0.255-0.68,0.765-0.68,7.735v5.185c0,2.977,0,6.12,0.17,8.925
		c0,0.17-0.68,0.255-0.85,0.085l-17.425-18.274l0.17,9.265c0.085,6.46,0.51,7.48,1.02,7.82c0.34,0.255,1.615,0.595,2.55,0.595
		c0.17,0,0.085,0.425,0,0.425c-3.57,0-5.015,0-8.415,0c-0.085,0-0.17-0.425,0-0.425c1.36-0.17,2.21-0.34,2.635-0.68
		c0.255-0.255,0.68-0.767,0.595-7.735l-0.085-5.185c0-2.977,0-6.12-0.255-8.926c0-0.171,0.68-0.256,0.85-0.086l17.51,18.36
		l-0.17-9.435c0-6.972-0.595-7.48-0.935-7.82c-0.425-0.34-1.275-0.51-2.805-0.595c-0.17,0-0.085-0.426,0-0.426c3.315,0,5.1,0,8.5,0
		c0.085,0,0.17,0.426,0,0.426C201.503,409.824,200.823,409.994,200.483,410.334z"/>
	<path fill="#FFFFFF" d="M220.968,432.179c-0.085,0-0.085-0.425,0-0.425c1.36-0.17,2.295-0.34,2.72-0.595
		c0.425-0.255,0.765-0.852,0.765-7.82v-5.185c0-6.972-0.34-7.65-0.765-7.82c-0.425-0.255-1.36-0.425-2.72-0.595
		c-0.17,0-0.17-0.426,0-0.426c3.315,0,6.205,0,9.605,0c0.085,0,0.17,0.426,0,0.426c-1.36,0.17-2.295,0.34-2.72,0.595
		c-0.425,0.255-0.765,0.85-0.765,7.82v5.185c0,6.97,0.34,7.565,0.765,7.82c0.425,0.255,1.275,0.425,2.72,0.595
		c0.17,0,0.17,0.425,0,0.425C227.258,432.179,224.283,432.179,220.968,432.179z"/>
	<path fill="#FFFFFF" d="M267.293,410.334c-0.34,0.255-1.02,0.765-3.825,7.735l-2.04,5.185c-1.19,2.977-2.38,6.035-3.4,8.84
		c-0.085,0.255-1.19,0.255-1.275,0c-1.105-3.06-2.04-5.608-3.4-8.84l-2.125-5.185c-2.55-6.205-3.229-7.396-3.825-7.82
		c-0.51-0.34-1.275-0.51-2.38-0.68c-0.17,0-0.085-0.426,0-0.426c2.805,0,4.93,0,8.33,0c0.085,0,0.17,0.426,0,0.426
		c-1.275,0.17-2.04,0.425-2.04,0.935c0,0.595,0.425,2.125,2.55,7.48l3.825,10.198l3.995-10.198c1.955-4.847,2.21-6.545,2.21-7.312
		c0-0.68-0.595-1.02-2.125-1.104c-0.17,0-0.085-0.426,0-0.426c2.21,0,4.675,0,7.31,0c0.085,0,0.17,0.426,0,0.426
		C268.313,409.739,267.803,409.994,267.293,410.334z"/>
	<path fill="#FFFFFF" d="M299.678,431.584c-0.255,0.425-0.68,0.68-1.53,0.68c-2.125,0-4.335-0.085-7.31-0.085
		c-2.295,0-3.4,0-5.95,0.085c-0.085,0-0.085-0.425,0-0.425c1.445-0.17,2.04-0.34,2.465-0.595c0.425-0.255,0.765-0.85,0.765-7.82
		v-5.185c0-6.97-0.34-7.65-0.765-7.82c-0.425-0.255-1.02-0.425-2.465-0.595c-0.17,0-0.17-0.426,0-0.426
		c2.805,0,6.885,0.085,9.18,0.085c2.975,0,4.25,0,5.355-0.17c0.17,0,0.255,0.085,0.255,0.17c-0.085,1.274-0.17,2.636-0.425,4.506
		c0,0.17-0.425,0.085-0.425-0.085c0-0.937-0.085-1.7-0.595-2.21c-0.595-0.682-1.7-0.937-4.25-0.937c-1.36,0-2.72,0-3.06,0.085
		c-0.085,0.34-0.085,1.785-0.085,3.995v5.102h2.89c3.4,0,3.825-0.427,4.08-1.7c0-0.17,0.51-0.085,0.51,0
		c-0.085,1.955-0.17,3.145-0.17,5.1c0,0.085-0.51,0.085-0.51,0c0-0.68-0.17-1.358-0.51-1.7c-0.34-0.34-0.85-0.595-3.4-0.595h-3.06
		v2.38c0,4.505,0.34,6.46,0.765,6.972c0.425,0.425,1.19,0.68,3.23,0.68c2.21,0,3.4-0.425,4.08-1.105
		c0.51-0.595,0.85-1.358,1.105-2.465c0-0.255,0.51-0.085,0.425,0.085C300.188,429.374,299.933,431.074,299.678,431.584z"/>
	<path fill="#FFFFFF" d="M339.883,432.094c-2.125,0-3.4-0.255-4.76-1.188c-1.785-1.275-3.74-3.655-6.63-8.585
		c-1.7,0.085-2.807,0-4.165,0v1.02c0,6.971,0.34,7.565,0.765,7.82s1.53,0.425,3.06,0.595c0.172,0,0.172,0.425,0,0.425
		c-3.313,0-6.29,0-9.604,0c-0.085,0-0.17-0.425,0-0.425c1.36-0.17,1.955-0.34,2.38-0.595s0.765-0.852,0.765-7.82v-5.185
		c0-6.972-0.255-7.65-0.765-7.82c-0.425-0.255-1.02-0.425-2.38-0.595c-0.17,0-0.17-0.426,0-0.426c1.53,0,3.229,0.085,4.505,0.085
		s2.72-0.085,4.25-0.085c5.355,0,7.735,2.976,7.735,5.609c0,2.807-1.785,5.102-4.25,6.63c4.675,7.057,7.733,9.945,10.198,9.945
		c0.342,0,0.767,0,1.021,0c0.17,0,0.17,0.51,0.085,0.51C341.413,432.094,340.732,432.094,339.883,432.094z M327.303,410.334
		c-1.19,0-2.295,0.255-2.465,0.425c-0.255,0.255-0.51,2.21-0.51,7.312c0,2.125,0.085,2.38,0.255,2.55
		c0.425,0.34,1.358,0.595,3.06,0.595c2.892,0,4.505-2.295,4.505-5.1C332.147,412.799,330.703,410.334,327.303,410.334z"/>
	<path fill="#FFFFFF" d="M361.388,432.349c-3.313,0-5.438-1.698-5.525-2.125c-0.255-1.188-0.255-3.06-0.085-4.845
		c0-0.17,0.512-0.17,0.512,0c0.085,1.36,0.595,2.55,1.104,3.315c0.937,1.358,2.38,2.38,4.505,2.38c2.807,0,4.25-1.955,4.25-4.25
		c0-5.271-9.435-6.205-9.435-11.985c0-3.655,3.06-5.95,6.375-5.95c2.72,0,3.229,0.937,4.505,0.682c0.17,0,0.255,0,0.255,0.085
		c0,1.273,0.085,2.89,0,4.76c0,0.17-0.51,0.17-0.51,0c-0.085-1.104-0.595-2.38-1.275-3.06c-0.765-0.852-1.87-1.275-3.145-1.275
		c-2.21,0-3.74,1.36-3.74,3.57c0,4.42,9.775,6.29,9.775,12.068C368.868,430.139,364.958,432.349,361.388,432.349z"/>
	<path fill="#FFFFFF" d="M387.567,432.179c-0.085,0-0.085-0.425,0-0.425c1.36-0.17,2.295-0.34,2.722-0.595
		c0.425-0.255,0.765-0.852,0.765-7.82v-5.185c0-6.972-0.34-7.65-0.765-7.82c-0.427-0.255-1.36-0.425-2.722-0.595
		c-0.17,0-0.17-0.426,0-0.426c3.315,0,6.205,0,9.605,0c0.085,0,0.17,0.426,0,0.426c-1.36,0.17-2.295,0.34-2.72,0.595
		c-0.427,0.255-0.767,0.85-0.767,7.82v5.185c0,6.97,0.34,7.565,0.767,7.82c0.425,0.255,1.273,0.425,2.72,0.595
		c0.17,0,0.17,0.425,0,0.425C393.857,432.179,390.968,432.179,387.567,432.179z"/>
	<path fill="#FFFFFF" d="M434.232,414.159c0,0.085-0.51,0.085-0.51-0.085c0-0.852-0.17-1.87-0.68-2.38
		c-0.682-0.682-2.38-1.19-6.12-1.19c-0.765,0-1.275,0-1.615,0.085c-0.085,0.34-0.17,1.785-0.17,3.995v8.67
		c0,6.97,0.34,7.565,0.765,7.82c0.427,0.255,1.36,0.425,2.722,0.595c0.17,0,0.17,0.425,0,0.425c-3.315,0-6.205,0-9.605,0
		c-0.085,0-0.085-0.425,0-0.425c1.36-0.17,2.295-0.34,2.721-0.595s0.766-0.852,0.766-7.82v-8.67c0-2.21,0-3.655-0.17-3.995
		c-0.34,0-1.021-0.085-1.785-0.085c-3.655,0-5.271,0.425-6.205,1.19c-0.595,0.51-0.935,1.528-1.104,2.38
		c0,0.17-0.511,0.085-0.511-0.085c0.255-1.785,0.425-3.74,0.511-4.932c0-0.085,0.086-0.17,0.256-0.17
		c1.273,0.256,3.994,0.426,10.198,0.426c8.5,0,9.775-0.256,10.37-0.426c0.17,0,0.255,0.085,0.255,0.17
		C434.487,410.419,434.402,412.289,434.232,414.159z"/>
	<path fill="#FFFFFF" d="M469.423,410.079c-0.34,0.17-1.021,0.425-3.57,4.76l-1.955,3.146c-0.85,1.358-1.698,2.805-2.465,4.08v1.188
		c0,7.055,0.34,7.65,0.767,7.905c0.425,0.255,1.358,0.425,2.72,0.595c0.17,0,0.17,0.425,0,0.425c-3.315,0-6.205,0-9.605,0
		c-0.085,0-0.085-0.425,0-0.425c1.445-0.17,2.295-0.34,2.722-0.595c0.425-0.255,0.765-0.852,0.765-7.905v-1.02
		c-0.765-1.36-1.53-2.722-2.55-4.25l-1.955-3.146c-2.72-4.25-3.146-4.59-3.655-4.845c-0.595-0.255-1.104-0.34-2.125-0.34
		c-0.17,0-0.085-0.426,0-0.426c3.4,0,4.59,0,7.99,0c0.085,0,0.17,0.426,0,0.426c-0.85,0-1.36,0.17-1.7,0.34
		c-0.255,0.17-0.255,0.51,2.295,4.505l3.57,6.035l3.655-5.95c2.55-3.995,2.125-4.335,1.869-4.59c-0.256-0.17-0.936-0.255-1.869-0.34
		c-0.17,0-0.085-0.426,0-0.426c2.21,0,4.08,0,7.31,0c0.085,0,0.17,0.426,0,0.426C470.612,409.739,469.933,409.824,469.423,410.079z"
		/>
</g>
</svg>
