<?xml version="1.0" encoding="utf-8"?>
<!-- Generator: Adobe Illustrator 16.0.3, SVG Export Plug-In . SVG Version: 6.00 Build 0)  -->
<!DOCTYPE svg PUBLIC "-//W3C//DTD SVG 1.1//EN" "http://www.w3.org/Graphics/SVG/1.1/DTD/svg11.dtd">
<svg version="1.1" id="Layer_1" xmlns="http://www.w3.org/2000/svg" xmlns:xlink="http://www.w3.org/1999/xlink" x="0px" y="0px"
	 width="571px" height="22px" viewBox="20.5 385 571 22" enable-background="new 20.5 385 571 22" xml:space="preserve">
<g>
	<path fill="#FFFFFF" d="M28.498,405.975c-1.35,0-2.05-0.051-3.15-0.051c-1.15,0-2.5,0.051-3.9,0.051c-0.1,0-0.1-0.301,0.05-0.301
		c1.25-0.1,1.9-0.199,2.3-0.449c0.4-0.199,0.65-0.898,0.65-7v-4.5c0-6.051-0.25-6.75-0.65-7c-0.35-0.2-1.05-0.3-2.3-0.45
		c-0.1-0.05-0.1-0.3-0.05-0.3c1.4,0,2.75,0.05,3.9,0.05s1.8-0.05,3.15-0.05c4.1,0,5.851,2.45,5.851,4.351c0,1.9-1.3,3.45-3.25,4.45
		c3.3,0.75,5.101,2.65,5.101,5.25C36.199,403.076,33.899,405.975,28.498,405.975z M28.448,386.674c-1,0-1.9,0.1-1.95,0.25
		c-0.1,0.1-0.2,1.4-0.2,5.05c0,1.8,0.05,2.7,0.1,2.75c0.1,0.1,0.9,0.2,2.1,0.2c2.45,0,3.7-1.55,3.7-3.9
		C32.149,388.024,30.148,386.674,28.448,386.674z M28.148,395.525c-1,0-1.7,0.05-1.75,0.1c-0.05,0.05-0.1,0.75-0.1,4.352
		c0,3.049,0.15,4.549,0.35,4.799c0.2,0.301,1.4,0.551,2.75,0.551c2.5,0,4.55-1.65,4.55-4.5
		C33.948,397.574,31.448,395.525,28.148,395.525z"/>
	<path fill="#FFFFFF" d="M62.901,405.926c-1.9,0-2.75-0.25-3.95-1.051c-1.55-1.1-3.25-3.398-5.701-7.6
		c-1.55,0.049-2.8,0.049-4-0.051v1c0,6.051,0.3,6.75,0.7,7c0.4,0.199,1.3,0.301,2.65,0.449c0.15,0.051,0.15,0.301,0.05,0.301
		c-1.5,0-6.601,0-8.051,0c-0.1,0-0.1-0.301,0.05-0.301c1.2-0.1,1.75-0.199,2.1-0.449c0.35-0.199,0.65-0.898,0.65-7v-4.5
		c0-6.051-0.3-6.75-0.65-7c-0.35-0.2-0.9-0.3-2.1-0.45c-0.1-0.05-0.1-0.3-0.05-0.3c1.35,0,2.601,0.05,3.75,0.05s2.35-0.05,3.7-0.05
		c4.601,0,6.551,2.55,6.551,4.9c0,2.45-1.55,4.351-3.701,5.651c4.101,6.15,6.651,8.801,8.801,8.801c0.3,0,0.7,0,0.9-0.049
		c0.1,0,0.1,0.35,0.05,0.35C64.051,405.875,63.601,405.926,62.901,405.926z M52,386.774c-1.05,0-2.35,0.15-2.45,0.3
		c-0.1,0.2-0.35,2.3-0.35,6.751c0,1.85,0.05,2.45,0.2,2.55c0.25,0.2,1.45,0.352,2.9,0.352c2.5,0,4.05-2.202,4.05-4.602
		C56.35,389.175,54.9,386.774,52,386.774z"/>
	<path fill="#FFFFFF" d="M69.252,405.975c-0.1,0-0.1-0.301,0.05-0.301c1.2-0.1,1.95-0.199,2.35-0.449c0.4-0.199,0.65-0.898,0.65-7
		v-4.5c0-6.051-0.25-6.75-0.65-7c-0.35-0.2-1.15-0.3-2.35-0.45c-0.15-0.05-0.15-0.3-0.05-0.3c1.5,0,6.55,0,8,0
		c0.1,0,0.1,0.3-0.05,0.3c-1.2,0.1-2,0.2-2.351,0.45c-0.35,0.2-0.65,0.9-0.65,7v4.5c0,6.051,0.3,6.75,0.65,7
		c0.35,0.199,1.15,0.301,2.351,0.449c0.1,0.051,0.1,0.301,0.05,0.301C75.802,405.975,70.752,405.975,69.252,405.975z"/>
	<path fill="#FFFFFF" d="M104.755,396.824c-1.2,0.15-1.6,0.201-1.95,0.451c-0.25,0.199-0.45,0.799-0.35,6.898v0.301
		c-1.7,1-4.05,1.699-6.601,1.699c-5.851,0-10.651-4.449-10.651-9.899c0-5.25,3.7-10.401,10.551-10.401c3.25,0,5.05,1.1,6.101,0.85
		c0.15-0.05,0.2,0.05,0.2,0.1c0.05,1.1,0.15,2.75,0.15,4.451c0,0.15-0.35,0.15-0.35-0.05c-0.1-0.85-0.55-1.85-1.2-2.45
		c-1.1-1.05-3.15-2.15-5.25-2.15c-5.55,0-8,4.4-8,8.75c0,5.151,3.65,9.901,9.501,9.901c1.35,0,2.75-0.301,3.65-0.699
		c-0.05-6.451-0.2-7.152-0.45-7.252c-0.35-0.199-1.15-0.299-2.351-0.449c-0.15,0-0.15-0.301-0.05-0.301c1.5,0,5.701,0,7.15,0
		C104.854,396.525,104.904,396.824,104.755,396.824z"/>
	<path fill="#FFFFFF" d="M126.806,405.975c-0.1,0-0.1-0.301,0.05-0.301c1.2-0.1,1.7-0.199,2.1-0.449c0.35-0.199,0.65-0.898,0.65-7
		v-2.05h-11.951v2.05c0,6.051,0.25,6.75,0.65,7c0.35,0.199,0.9,0.301,2.1,0.449c0.1,0.051,0.1,0.301,0.05,0.301
		c-1.45,0-6.051,0-7.451,0c-0.1,0-0.1-0.301,0.05-0.301c1.2-0.1,1.75-0.199,2.101-0.449c0.35-0.199,0.65-0.898,0.65-7v-4.5
		c0-6.051-0.3-6.75-0.65-7c-0.35-0.2-0.9-0.3-2.101-0.45c-0.1-0.05-0.1-0.3-0.05-0.3c1.45,0,6.05,0,7.451,0c0.1,0,0.1,0.3-0.05,0.3
		c-1.2,0.1-1.7,0.2-2.1,0.45c-0.4,0.2-0.65,0.9-0.65,7v1.65h11.951v-1.65c0-6.051-0.3-6.75-0.65-7c-0.4-0.2-0.9-0.3-2.1-0.45
		c-0.1-0.05-0.1-0.3-0.05-0.3c1.45,0,6.05,0,7.451,0c0.1,0,0.1,0.3-0.05,0.3c-1.2,0.1-1.7,0.2-2.1,0.45c-0.35,0.2-0.65,0.9-0.65,7
		v4.5c0,6.051,0.3,6.75,0.65,7c0.4,0.199,0.9,0.301,2.1,0.449c0.1,0.051,0.1,0.301,0.05,0.301
		C132.807,405.975,128.257,405.975,126.806,405.975z"/>
	<path fill="#FFFFFF" d="M152.858,405.975c-0.1,0-0.1-0.301,0-0.301c0.95-0.1,1.7-0.1,1.7-0.6s-0.6-2.199-2.45-6.85l-0.05-0.102
		h-6.25l-0.05,0.102c-1.55,4.148-2.1,6.049-2.1,6.648c0,0.551,0.7,0.602,1.95,0.75c0.1,0.051,0.1,0.301,0,0.301c-0.9,0-4.35,0-5.8,0
		c-0.1,0-0.15-0.301,0-0.301c0.9-0.1,1.5-0.199,1.95-0.5c0.3-0.199,0.85-0.85,3.05-6.898l1.65-4.501c0.95-2.6,1.95-5.25,2.7-7.651
		c0.1-0.2,0.35-0.2,0.4,0c0.9,2.7,1.7,4.851,2.851,7.651l1.7,4.501c2.4,6.049,2.8,6.699,3.25,7c0.5,0.301,1,0.35,1.85,0.449
		c0.1,0.051,0.1,0.301,0,0.301C157.809,405.975,154.308,405.975,152.858,405.975z M148.958,389.575l-2.851,7.849h5.701
		L148.958,389.575z"/>
	<path fill="#FFFFFF" d="M183.611,405.975c-0.1,0-0.15-0.301,0-0.301c0.85-0.1,1.5-0.1,1.8-0.35c0.3-0.199,0.5-1-0.2-7.051
		l-0.7-7.25l-7.051,15.05c-0.05,0.051-0.2,0.1-0.3-0.049l-7.601-14.902l-0.5,6.951c-0.55,6.199-0.15,6.9,0.2,7.15
		c0.3,0.25,1.15,0.301,1.95,0.398c0.1,0.051,0.1,0.301,0,0.301c-1.5,0-5,0-6.5,0c-0.1,0-0.05-0.301,0.05-0.301
		c1.25-0.1,1.9-0.199,2.25-0.5c0.25-0.199,0.65-0.85,1.1-6.898l0.3-4.501c0.15-2.6,0.35-5.25,0.4-7.651c0.05-0.15,0.35-0.2,0.4-0.05
		l8.651,17.102l8-17.102c0.05-0.1,0.35-0.1,0.35,0.05c0.15,2.7,0.3,4.851,0.6,7.651l0.45,4.501c0.7,6.049,0.85,6.75,1.3,7
		c0.4,0.199,0.9,0.301,2.15,0.449c0.1,0.051,0.2,0.301,0.1,0.301C189.311,405.975,185.011,405.975,183.611,405.975z"/>
	<path fill="#FFFFFF" d="M225.564,386.624c-0.3,0.15-0.7,0.6-2.9,4.3l-1.65,2.75c-0.75,1.2-1.5,2.4-2.15,3.551v1
		c0,6.102,0.3,6.801,0.65,7s1.15,0.301,2.35,0.449c0.1,0.051,0.1,0.301,0.05,0.301c-1.45,0-6.55,0-8,0c-0.1,0-0.1-0.301,0.05-0.301
		c1.2-0.1,2-0.199,2.35-0.449c0.35-0.199,0.65-0.898,0.65-7v-0.9c-0.7-1.2-1.35-2.35-2.2-3.7l-1.7-2.75c-2.35-3.7-2.6-4.2-3-4.35
		c-0.5-0.2-0.95-0.2-1.8-0.25c-0.15,0-0.1-0.3,0-0.3c1.45,0,5.101,0,6.601,0c0.1,0,0.1,0.3,0,0.3c-0.7,0.05-1.5,0.05-1.7,0.2
		c-0.25,0.15,0,0.65,2.25,4.7l3.05,5.15l3.4-5.65c2.2-3.45,2.1-3.95,1.9-4.101c-0.25-0.1-1.1-0.2-1.9-0.25c-0.1,0-0.1-0.3,0-0.3
		c0.9,0,4.351,0,5.851,0c0.1,0,0.1,0.3,0,0.3C226.664,386.374,226.014,386.424,225.564,386.624z"/>
	<path fill="#FFFFFF" d="M242.816,406.176c-5.65,0-10.001-4.352-10.001-9.9c0-5.301,4.201-10.401,10.451-10.401
		c5.65,0,10,4.35,10,9.9C253.266,401.074,249.116,406.176,242.816,406.176z M242.666,386.724c-5.5,0-7.651,4.65-7.651,8.65
		c0,5.001,3.5,9.951,8.401,9.951c5.45,0,7.601-4.65,7.601-8.65C251.066,391.675,247.566,386.724,242.666,386.724z"/>
	<path fill="#FFFFFF" d="M279.468,386.874c-0.25,0.2-0.5,0.85-0.5,6.9v5.15c0,3.701-2.75,7.25-7.601,7.25
		c-4.8,0-7.701-3.148-7.701-7.148v-5.25c0-6.05-0.3-6.75-0.65-7c-0.35-0.2-0.9-0.3-2.1-0.45c-0.1-0.05-0.1-0.3-0.05-0.3
		c1.5,0,6.201,0,7.601,0c0.1,0,0.1,0.3-0.05,0.3c-1.2,0.1-1.85,0.2-2.2,0.45c-0.4,0.2-0.65,0.9-0.65,7v4.651
		c0,3.801,2.45,6.5,6.5,6.5c3.8,0,5.8-2.75,5.8-6.199v-5.001c0-6.051-0.3-6.651-0.5-6.901c-0.35-0.3-1.1-0.4-2.3-0.5
		c-0.15-0.05-0.1-0.3,0-0.3c1.45,0,5.101,0,6.551,0c0.1,0,0.1,0.3,0,0.3C280.419,386.474,279.819,386.574,279.468,386.874z"/>
	<path fill="#FFFFFF" d="M309.021,387.024c-0.25,0.25-0.602,0.7-0.55,6.75l0.05,4.5c0.05,2.602,0,5.301,0.148,7.701
		c0.052,0.148-0.35,0.199-0.5,0.051l-15.251-16.252l0.1,8.5c0.05,5.602,0.45,6.451,0.85,6.801c0.3,0.201,1.4,0.5,2.25,0.5
		c0.1,0,0.1,0.4,0,0.4c-1.6,0-5.65,0-7.05,0c-0.1,0-0.1-0.352,0-0.4c1.25-0.1,1.95-0.299,2.25-0.6c0.25-0.25,0.6-0.701,0.5-6.75
		l-0.05-4.501c-0.05-2.6-0.05-5.301-0.2-7.701c0-0.15,0.45-0.2,0.55-0.05l15.301,16.352l-0.1-8.601c-0.05-6.051-0.5-6.5-0.851-6.801
		c-0.35-0.3-1.15-0.45-2.45-0.5c-0.1-0.05-0.1-0.4,0-0.4c1.5,0,5.702,0,7.151,0c0.101,0,0.101,0.35,0,0.4
		C309.972,386.574,309.371,386.774,309.021,387.024z"/>
	<path fill="#FFFFFF" d="M339.174,396.824c-1.199,0.15-1.601,0.201-1.949,0.451c-0.25,0.199-0.45,0.799-0.351,6.898v0.301
		c-1.7,1-4.051,1.699-6.601,1.699c-5.852,0-10.651-4.449-10.651-9.899c0-5.25,3.7-10.401,10.551-10.401c3.25,0,5.052,1.1,6.102,0.85
		c0.149-0.05,0.2,0.05,0.2,0.1c0.05,1.1,0.149,2.75,0.149,4.451c0,0.15-0.351,0.15-0.351-0.05c-0.101-0.85-0.55-1.85-1.2-2.45
		c-1.1-1.05-3.15-2.15-5.25-2.15c-5.551,0-8.001,4.4-8.001,8.75c0,5.151,3.65,9.901,9.501,9.901c1.35,0,2.75-0.301,3.65-0.699
		c-0.051-6.451-0.2-7.152-0.45-7.252c-0.351-0.199-1.15-0.299-2.352-0.449c-0.148,0-0.148-0.301-0.05-0.301c1.5,0,5.7,0,7.15,0
		C339.273,396.525,339.324,396.824,339.174,396.824z"/>
	<path fill="#FFFFFF" d="M378.177,386.874c-0.25,0.2-0.5,0.85-0.5,6.9v5.15c0,3.701-2.75,7.25-7.602,7.25
		c-4.8,0-7.7-3.148-7.7-7.148v-5.25c0-6.05-0.3-6.75-0.649-7c-0.351-0.2-0.9-0.3-2.101-0.45c-0.101-0.05-0.101-0.3-0.051-0.3
		c1.5,0,6.201,0,7.601,0c0.102,0,0.102,0.3-0.05,0.3c-1.2,0.1-1.85,0.2-2.2,0.45c-0.398,0.2-0.648,0.9-0.648,7v4.651
		c0,3.801,2.45,6.5,6.5,6.5c3.801,0,5.801-2.75,5.801-6.199v-5.001c0-6.051-0.3-6.651-0.5-6.901c-0.351-0.3-1.101-0.4-2.301-0.5
		c-0.149-0.05-0.1-0.3,0-0.3c1.45,0,5.101,0,6.551,0c0.101,0,0.101,0.3,0,0.3C379.127,386.474,378.527,386.574,378.177,386.874z"/>
	<path fill="#FFFFFF" d="M407.729,387.024c-0.25,0.25-0.602,0.7-0.55,6.75l0.05,4.5c0.05,2.602,0,5.301,0.149,7.701
		c0.051,0.148-0.351,0.199-0.501,0.051l-15.251-16.252l0.102,8.5c0.05,5.602,0.449,6.451,0.85,6.801c0.3,0.201,1.4,0.5,2.25,0.5
		c0.102,0,0.102,0.4,0,0.4c-1.6,0-5.649,0-7.051,0c-0.1,0-0.1-0.352,0-0.4c1.251-0.1,1.95-0.299,2.251-0.6
		c0.25-0.25,0.6-0.701,0.5-6.75l-0.05-4.501c-0.051-2.6-0.051-5.301-0.2-7.701c0-0.15,0.45-0.2,0.55-0.05l15.301,16.352l-0.1-8.601
		c-0.05-6.051-0.5-6.5-0.851-6.801c-0.351-0.3-1.149-0.45-2.45-0.5c-0.101-0.05-0.101-0.4,0-0.4c1.501,0,5.701,0,7.15,0
		c0.101,0,0.101,0.35,0,0.4C408.68,386.574,408.079,386.774,407.729,387.024z"/>
	<path fill="#FFFFFF" d="M418.78,405.975c-0.1,0-0.1-0.301,0.05-0.301c1.2-0.1,1.95-0.199,2.352-0.449
		c0.398-0.199,0.648-0.898,0.648-7v-4.5c0-6.051-0.25-6.75-0.648-7c-0.352-0.2-1.15-0.3-2.352-0.45c-0.148-0.05-0.148-0.3-0.05-0.3
		c1.5,0,6.551,0,8.001,0c0.1,0,0.1,0.3-0.05,0.3c-1.2,0.1-2.001,0.2-2.352,0.45c-0.351,0.2-0.649,0.9-0.649,7v4.5
		c0,6.051,0.3,6.75,0.649,7c0.351,0.199,1.15,0.301,2.352,0.449c0.1,0.051,0.1,0.301,0.05,0.301
		C425.331,405.975,420.23,405.975,418.78,405.975z"/>
	<path fill="#FFFFFF" d="M452.783,386.874c-0.3,0.25-0.851,0.85-3.301,6.9l-1.8,4.5c-1,2.602-2.101,5.25-2.9,7.65
		c-0.1,0.199-0.7,0.199-0.75,0c-0.95-2.65-1.8-4.852-2.9-7.65l-1.8-4.5c-2.25-5.4-2.8-6.601-3.3-6.9c-0.5-0.3-1.101-0.4-2.051-0.5
		c-0.1-0.05-0.1-0.3,0-0.3c1.25,0,5.45,0,6.9,0c0.101,0,0.149,0.3,0,0.3c-1.149,0.1-1.899,0.35-1.899,0.85
		c0,0.55,0.5,1.95,2.399,6.601l3.501,9.201l3.649-9.201c1.649-4.201,2.101-5.75,2.101-6.401c0-0.55-0.7-0.9-2-1
		c-0.101-0.05-0.101-0.3,0-0.3c0.899,0,4.851,0,5.949,0c0.102,0,0.15,0.3,0,0.3C453.684,386.474,453.184,386.574,452.783,386.874z"
		/>
	<path fill="#FFFFFF" d="M474.535,405.625c-0.149,0.201-1.101,0.352-2.351,0.352c-1.851,0-2.801-0.102-5.4-0.102
		c-1.95,0-2.95,0.051-5.15,0.051c-0.1,0-0.1-0.301,0.051-0.301c1.199-0.1,1.899-0.199,2.301-0.449c0.398-0.199,0.648-0.9,0.648-7
		v-4.501c0-6.05-0.25-6.75-0.648-7c-0.352-0.2-1.102-0.3-2.301-0.45c-0.101-0.05-0.101-0.3-0.051-0.3c2.4,0.05,5.95,0.05,7.951,0.05
		c2.601,0,3.551-0.05,4.5-0.15c0.101,0,0.2,0.05,0.2,0.1c-0.101,1.1-0.149,2.3-0.351,3.95c-0.051,0.1-0.351,0.1-0.351-0.1
		c0-0.8-0.05-1.55-0.5-2.05c-0.5-0.55-1.45-1-3.649-1c-1.2,0-2.5,0-2.802,0.05c-0.1,0.3-0.1,1.8-0.1,3.7v4.55h2.7
		c2.899,0,3.301-0.45,3.5-1.55c0-0.1,0.351-0.1,0.351,0c-0.05,0.85-0.149,3.6-0.149,4.449c0,0.102-0.351,0.102-0.351-0.049
		c0-0.6-0.149-1.201-0.45-1.5c-0.3-0.3-0.75-0.6-2.899-0.6h-2.7v2.202c0,3.949,0.2,6.148,0.5,6.449c0.25,0.301,1.4,0.4,3.15,0.4
		c1.949,0,3-0.551,3.55-1.15c0.45-0.449,0.751-1.25,1.001-2.199c0.05-0.201,0.35-0.051,0.35,0.1
		C474.884,403.875,474.585,405.576,474.535,405.625z"/>
	<path fill="#FFFFFF" d="M502.387,405.926c-1.899,0-2.75-0.25-3.95-1.051c-1.55-1.1-3.25-3.398-5.7-7.6
		c-1.55,0.049-2.8,0.049-4-0.051v1c0,6.051,0.3,6.75,0.7,7c0.398,0.199,1.3,0.301,2.648,0.449c0.15,0.051,0.15,0.301,0.052,0.301
		c-1.501,0-6.602,0-8.052,0c-0.101,0-0.101-0.301,0.051-0.301c1.199-0.1,1.75-0.199,2.1-0.449c0.351-0.199,0.65-0.898,0.65-7v-4.5
		c0-6.051-0.301-6.75-0.65-7c-0.35-0.2-0.899-0.3-2.1-0.45c-0.102-0.05-0.102-0.3-0.051-0.3c1.351,0,2.601,0.05,3.75,0.05
		c1.15,0,2.352-0.05,3.7-0.05c4.602,0,6.551,2.55,6.551,4.9c0,2.45-1.55,4.351-3.699,5.651c4.101,6.15,6.649,8.801,8.801,8.801
		c0.3,0,0.7,0,0.898-0.049c0.102,0,0.102,0.35,0.052,0.35C503.537,405.875,503.087,405.926,502.387,405.926z M491.486,386.774
		c-1.05,0-2.351,0.15-2.45,0.3c-0.1,0.2-0.351,2.3-0.351,6.751c0,1.85,0.051,2.45,0.2,2.55c0.25,0.2,1.449,0.352,2.899,0.352
		c2.5,0,4.051-2.202,4.051-4.602C495.837,389.175,494.387,386.774,491.486,386.774z"/>
	<path fill="#FFFFFF" d="M513.888,406.125c-3.101,0-4.7-1.699-4.75-1.799c-0.051-0.102-0.2-2.701,0-4.252
		c-0.051-0.148,0.35-0.148,0.35,0.051c0.051,1.15,0.5,2.4,0.9,3.051c0.899,1.35,2.101,2.199,3.899,2.199
		c2.4,0,3.852-1.699,3.852-3.949c0-4.602-8.151-5.351-8.151-10.401c0-3.15,2.45-5.15,5.301-5.15c2.352,0,2.75,0.85,3.852,0.55
		c0.1-0.05,0.199,0.05,0.199,0.1c0,1.1,0.051,2.5,0,4.15c-0.051,0.1-0.351,0.1-0.351-0.05c-0.05-1-0.45-2.2-1.05-2.85
		c-0.7-0.75-1.7-1.2-2.8-1.2c-1.95,0-3.4,1.45-3.4,3.351c0,3.85,8.5,5.45,8.5,10.451
		C520.188,404.176,516.938,406.125,513.888,406.125z"/>
	<path fill="#FFFFFF" d="M529.689,405.975c-0.101,0-0.101-0.301,0.05-0.301c1.2-0.1,1.95-0.199,2.351-0.449
		c0.399-0.199,0.649-0.898,0.649-7v-4.5c0-6.051-0.25-6.75-0.649-7c-0.351-0.2-1.149-0.3-2.351-0.45c-0.15-0.05-0.15-0.3-0.05-0.3
		c1.5,0,6.551,0,8.001,0c0.1,0,0.1,0.3-0.051,0.3c-1.199,0.1-2,0.2-2.351,0.45c-0.351,0.2-0.649,0.9-0.649,7v4.5
		c0,6.051,0.3,6.75,0.649,7c0.351,0.199,1.15,0.301,2.351,0.449c0.101,0.051,0.101,0.301,0.051,0.301
		C536.24,405.975,531.14,405.975,529.689,405.975z"/>
	<path fill="#FFFFFF" d="M563.843,390.325c-0.051,0.1-0.351,0.1-0.351-0.05c0-0.75-0.149-1.95-0.601-2.351
		c-0.551-0.6-2.051-0.9-5.301-0.9c-0.699,0-1.101,0-1.399,0.05c-0.101,0.3-0.101,1.8-0.101,3.701v7.5c0,6.051,0.301,6.75,0.649,7
		c0.351,0.199,1.15,0.301,2.351,0.449c0.101,0.051,0.101,0.301,0.051,0.301c-1.5,0-6.5,0-8,0c-0.102,0-0.102-0.301,0.05-0.301
		c1.2-0.1,1.95-0.199,2.35-0.449c0.352-0.199,0.65-0.9,0.65-7v-7.5c0-1.95-0.05-3.4-0.101-3.701c-0.301-0.05-0.851-0.05-1.551-0.05
		c-3.149,0-4.601,0.3-5.351,0.9c-0.449,0.45-0.75,1.7-0.899,2.45c0,0.15-0.351,0.05-0.351-0.05c0.2-1.55,0.351-3.25,0.45-4.3
		c0-0.05,0.05-0.1,0.199-0.1c1.101,0.2,3.25,0.35,8.602,0.35c7.351,0,8.201-0.2,8.751-0.4c0.1-0.05,0.2,0.05,0.2,0.1
		C564.093,387.074,564.042,388.724,563.843,390.325z"/>
	<path fill="#FFFFFF" d="M588.395,386.624c-0.302,0.15-0.7,0.6-2.9,4.3l-1.649,2.75c-0.75,1.2-1.5,2.4-2.15,3.551v1
		c0,6.102,0.3,6.801,0.65,7c0.35,0.199,1.149,0.301,2.351,0.449c0.1,0.051,0.1,0.301,0.05,0.301c-1.45,0-6.551,0-8.001,0
		c-0.1,0-0.1-0.301,0.05-0.301c1.2-0.1,2-0.199,2.352-0.449c0.35-0.199,0.648-0.898,0.648-7v-0.9c-0.698-1.2-1.35-2.35-2.199-3.7
		l-1.699-2.75c-2.352-3.7-2.602-4.2-3.001-4.35c-0.5-0.2-0.95-0.2-1.8-0.25c-0.15,0-0.101-0.3,0-0.3c1.449,0,5.101,0,6.601,0
		c0.1,0,0.1,0.3,0,0.3c-0.7,0.05-1.5,0.05-1.7,0.2c-0.25,0.15,0,0.65,2.25,4.7l3.051,5.15l3.399-5.65c2.2-3.45,2.101-3.95,1.9-4.101
		c-0.25-0.1-1.101-0.2-1.9-0.25c-0.1,0-0.1-0.3,0-0.3c0.9,0,4.351,0,5.851,0c0.102,0,0.102,0.3,0,0.3
		C589.494,386.374,588.895,386.424,588.395,386.624z"/>
</g>
</svg>
