<?xml version="1.0" encoding="utf-8"?>
<!-- Generator: Adobe Illustrator 19.2.1, SVG Export Plug-In . SVG Version: 6.00 Build 0)  -->
<svg version="1.1" id="Layer_1" xmlns="http://www.w3.org/2000/svg" xmlns:xlink="http://www.w3.org/1999/xlink" x="0px" y="0px"
	 viewBox="0 0 256.1 20.7" enable-background="new 0 0 256.1 20.7" xml:space="preserve">
<g>
	<path fill="#FFFFFF" d="M8.6,14.8c-0.2,0-0.4,0-0.8,0c-0.4,0-0.7,0-0.8,0c-0.8,0-1.4,0-1.9,0.1c0,0-0.1,0-0.1-0.1c0,0,0-0.1,0-0.1
		c0-0.1,0-0.1,0-0.1c0.6-0.1,0.9-0.2,1-0.4s0.2-0.8,0.2-1.8V8.2c0-1-0.1-1.6-0.2-1.9C6,6.1,5.6,6,5.1,5.9c0,0,0,0,0-0.1
		c0,0,0-0.1,0-0.1c0,0,0-0.1,0.1-0.1c0.4,0.1,1,0.1,1.7,0.1c0.1,0,0.3,0,0.7,0c0.4,0,0.7,0,0.8,0c0.8,0,1.4,0.2,1.9,0.5
		c0.5,0.4,0.8,0.9,0.8,1.6c0,0.4-0.2,0.8-0.5,1.2c-0.3,0.4-0.7,0.6-1.2,0.8c0.7,0,1.3,0.3,1.7,0.7c0.5,0.4,0.7,0.9,0.7,1.6
		c0,0.8-0.3,1.5-0.9,2C10.3,14.5,9.5,14.8,8.6,14.8z M7.7,10c0,0-0.1,0-0.1-0.1s0-0.1,0.1-0.1c0.8,0,1.3-0.1,1.7-0.4
		C9.7,9.1,9.9,8.6,9.9,8c0-1.3-0.6-1.9-1.9-1.9c-0.2,0-0.3,0-0.5,0.1c-0.1,0.3-0.1,1-0.1,2v4.3c0,0.9,0.1,1.5,0.2,1.7
		s0.4,0.3,0.9,0.3c0.7,0,1.3-0.2,1.6-0.5c0.4-0.3,0.5-0.9,0.5-1.7c0-0.6-0.2-1.2-0.7-1.6c-0.4-0.4-1-0.6-1.8-0.6C8,10,7.8,10,7.7,10
		z"/>
	<path fill="#FFFFFF" d="M23.7,15.1c-1.4,0-2.5-0.5-3.4-1.4c-0.7-0.8-1.3-1.8-1.6-3c-0.3,0.1-0.7,0.1-1,0.1c-0.2,0-0.4,0-0.5,0v1.6
		c0,1,0.1,1.6,0.2,1.8c0.1,0.2,0.4,0.3,1,0.4c0,0,0,0,0,0.1c0,0.1,0,0.1,0,0.1c0,0,0,0.1-0.1,0.1c-0.4-0.1-0.9-0.1-1.6-0.1
		c-0.8,0-1.4,0-1.9,0.1c0,0-0.1,0-0.1-0.1c0,0,0-0.1,0-0.1c0,0,0-0.1,0-0.1c0.6-0.1,0.9-0.2,1-0.4C16,14,16,13.4,16,12.4V8.2
		c0-0.9,0-1.4-0.1-1.6c-0.1-0.3-0.3-0.4-0.7-0.4c-0.1,0-0.3,0-0.5,0.1c0,0-0.1,0-0.1-0.1c0-0.1,0-0.1,0.1-0.1
		c0.5-0.2,1.5-0.2,3.2-0.2c1,0,1.8,0.2,2.4,0.5c0.7,0.4,1,0.9,1,1.7c0,0.5-0.1,0.9-0.4,1.3c-0.3,0.5-0.8,0.9-1.4,1.2
		c0.4,1.1,1,2,1.8,3c0.9,1,1.6,1.5,2.3,1.5c0,0,0,0,0.1,0.1C23.8,15,23.7,15.1,23.7,15.1z M17.8,6c-0.1,0-0.3,0-0.6,0
		c-0.1,0.3-0.1,0.9-0.1,2v2.3h0.5c1.7,0,2.6-0.6,2.6-1.9C20.2,6.8,19.4,6,17.8,6z"/>
	<path fill="#FFFFFF" d="M28.5,14.8c-0.8,0-1.4,0-1.9,0.1c0,0-0.1,0-0.1-0.1c0,0,0-0.1,0-0.1c0-0.1,0-0.1,0-0.1
		c0.6-0.1,0.9-0.2,1-0.4s0.2-0.8,0.2-1.8V8.2c0-1-0.1-1.6-0.2-1.9c-0.1-0.2-0.4-0.3-1-0.4c0,0,0,0,0-0.1s0-0.1,0-0.1
		c0,0,0-0.1,0.1-0.1c0.5,0.1,1.1,0.1,1.9,0.1c0.6,0,1.2,0,1.6-0.1c0,0,0.1,0,0.1,0.1c0,0,0,0.1,0,0.1c0,0,0,0.1-0.1,0.1
		c-0.6,0.1-0.9,0.2-1,0.4c-0.1,0.2-0.2,0.8-0.2,1.8v4.2c0,1,0.1,1.6,0.2,1.8c0.1,0.2,0.4,0.3,1,0.4c0,0,0,0,0.1,0.1
		c0,0.1,0,0.1,0,0.1c0,0,0,0.1-0.1,0.1C29.6,14.8,29.1,14.8,28.5,14.8z"/>
	<path fill="#FFFFFF" d="M41.1,13.1c0,0.5,0.1,0.8,0.2,0.9c-1.2,0.7-2.3,1-3.3,1c-1.4,0-2.6-0.5-3.4-1.4c-0.8-0.9-1.2-1.9-1.2-3.2
		c0-1.2,0.5-2.4,1.4-3.4c1-1.1,2.1-1.6,3.5-1.6c0.5,0,1.1,0.1,1.7,0.3c0.5,0.2,0.8,0.4,1,0.5c0.1,0,0.1,0.3,0.1,0.7
		c0,0.4,0,0.8,0,1.2c0,0,0,0.1-0.1,0.1c-0.1,0-0.1,0-0.1,0c0-0.6-0.3-1.1-0.8-1.6c-0.6-0.5-1.3-0.8-2.1-0.8c-1,0-1.8,0.4-2.4,1.1
		c-0.6,0.7-1,1.7-1,3c0,1.5,0.4,2.6,1.1,3.5c0.7,0.8,1.5,1.2,2.5,1.2c1,0,1.6-0.2,1.8-0.7C40,13.7,40,13.4,40,13
		c0-0.9-0.1-1.5-0.2-1.7c-0.1-0.2-0.5-0.3-1.2-0.4c0,0,0,0-0.1-0.1s0-0.1,0-0.1c0,0,0-0.1,0.1-0.1c0.3,0.1,1,0.1,2.1,0.1
		c0.6,0,1.2,0,1.6-0.1c0,0,0.1,0,0.1,0.1c0,0,0,0.1,0,0.1c0,0,0,0.1-0.1,0.1c-0.6,0-0.9,0.2-1,0.4C41.2,11.6,41.1,12.2,41.1,13.1z"
		/>
	<path fill="#FFFFFF" d="M53,14.8c-0.7,0-1.3,0-1.8,0.1c0,0-0.1,0-0.1-0.1c0,0,0-0.1,0-0.1c0-0.1,0-0.1,0.1-0.1
		c0.5-0.1,0.8-0.2,0.9-0.4c0.1-0.2,0.2-0.8,0.2-1.8v-2h-4.8v2c0,1,0.1,1.6,0.2,1.8c0.1,0.2,0.4,0.3,0.9,0.4c0,0,0,0,0,0.1
		c0,0,0,0.1,0,0.1c0,0,0,0.1-0.1,0.1c-0.4-0.1-0.9-0.1-1.5-0.1c-0.9,0-1.5,0-2,0.1c0,0-0.1,0-0.1-0.1c0,0,0-0.1,0-0.1
		c0-0.1,0-0.1,0.1-0.1c0.5-0.1,0.8-0.1,0.9-0.2c0.2-0.1,0.3-0.3,0.3-0.6c0-0.2,0.1-0.7,0.1-1.5V8.2c0-0.8,0-1.3-0.1-1.5
		c0-0.3-0.2-0.5-0.3-0.6c-0.1-0.1-0.4-0.1-0.9-0.2c0,0,0,0-0.1-0.1c0,0,0-0.1,0-0.1c0,0,0-0.1,0.1,0c0.4,0.1,1.1,0.1,2,0.1
		c0.6,0,1,0,1.5-0.1c0,0,0.1,0,0.1,0.1c0,0,0,0.1,0,0.1c0,0,0,0.1,0,0.1c-0.5,0-0.8,0.2-0.9,0.4s-0.1,0.8-0.1,1.8V10h4.8V8.2
		c0-1-0.1-1.6-0.2-1.8S51.7,6,51.2,5.9c0,0,0,0-0.1-0.1c0,0,0-0.1,0-0.1c0,0,0-0.1,0.1,0c0.4,0.1,1,0.1,1.8,0.1c0.7,0,1.3,0,1.7-0.1
		c0,0,0.1,0,0.1,0c0,0,0,0.1,0,0.1c0,0,0,0.1-0.1,0.1c-0.6,0.1-1,0.2-1.1,0.4c-0.1,0.2-0.1,0.8-0.1,1.8v4.2c0,1,0.1,1.6,0.2,1.8
		s0.5,0.3,1.1,0.4c0,0,0,0,0.1,0.1c0,0,0,0.1,0,0.1c0,0,0,0.1-0.1,0.1C54.3,14.8,53.7,14.8,53,14.8z"/>
	<path fill="#FFFFFF" d="M66.5,14.8c-0.4-0.1-0.9-0.1-1.5-0.1c-0.9,0-1.5,0-1.9,0.1c0,0-0.1,0-0.1-0.1c0,0,0-0.1,0-0.1
		c0,0,0-0.1,0-0.1c0.4,0,0.6-0.1,0.7-0.1c0.2-0.1,0.2-0.2,0.2-0.3c0-0.2-0.2-0.8-0.5-1.8l-0.4-1.1h-2.9l-0.4,1.1
		c-0.4,0.9-0.5,1.5-0.5,1.8c0,0.1,0.1,0.3,0.2,0.3c0.1,0,0.3,0.1,0.6,0.1c0,0,0,0,0.1,0.1c0,0.1,0,0.1,0,0.1c0,0,0,0.1-0.1,0.1
		c-0.4-0.1-0.8-0.1-1.2-0.1c-0.4,0-0.9,0-1.3,0.1c0,0-0.1,0-0.1-0.1c0,0,0-0.1,0-0.1c0,0,0-0.1,0-0.1c0.4,0,0.7-0.2,1-0.5
		c0.2-0.3,0.5-0.8,0.8-1.7l2.8-6.8c0-0.1,0.1-0.1,0.1-0.1c0.1,0,0.1,0,0.1,0.1l2.4,6.8c0.3,0.9,0.6,1.5,0.8,1.7
		c0.2,0.3,0.6,0.5,1.1,0.5c0,0,0,0,0,0.1C66.6,14.7,66.6,14.8,66.5,14.8C66.6,14.8,66.5,14.9,66.5,14.8z M61.8,7.3l-1.4,3.6H63
		L61.8,7.3z"/>
	<path fill="#FFFFFF" d="M78.3,14.8c-0.8,0-1.4,0-1.8,0.1c0,0-0.1,0-0.1-0.1c0,0,0-0.1,0-0.1c0-0.1,0-0.1,0.1-0.1
		c0.5-0.1,0.8-0.2,0.9-0.4c0.1-0.2,0.1-0.8,0.1-1.8l-0.1-5l-3,7.4c0,0-0.1,0.1-0.1,0.1c-0.1,0-0.1,0-0.1-0.1l-3-7l-0.1,4.6
		c0,1,0,1.5,0.1,1.8c0.1,0.2,0.5,0.4,1,0.4c0,0,0,0,0,0.1c0,0.1,0,0.1,0,0.1c0,0,0,0.1-0.1,0.1c-0.4-0.1-0.8-0.1-1.3-0.1
		c-0.7,0-1.2,0-1.6,0.1c0,0-0.1,0-0.1-0.1c0,0,0-0.1,0-0.1c0-0.1,0-0.1,0.1-0.1c0.6-0.1,0.9-0.2,1-0.4s0.2-0.8,0.2-1.8l0.1-4.9
		c0-0.9-0.5-1.4-1.4-1.5c0,0,0,0-0.1-0.1c0-0.1,0-0.1,0-0.1c0,0,0-0.1,0.1-0.1c0.4,0.1,1.2,0.1,2.3,0.1l3.1,7.3l1.9-4.8
		c0.5-1.2,0.8-2.1,0.9-2.6c0.8,0.1,1.5,0,2.3-0.1c0,0,0.1,0,0.1,0.1c0,0,0,0.1,0,0.1c0,0,0,0.1,0,0.1c-0.7,0.1-1,0.2-1.1,0.4
		c-0.1,0.2-0.2,0.8-0.1,1.8l0.1,4.2c0,1,0.1,1.6,0.2,1.8c0.1,0.2,0.5,0.3,1.2,0.4c0,0,0,0,0,0.1c0,0.1,0,0.1,0,0.1
		c0,0,0,0.1-0.1,0.1C79.5,14.8,79,14.8,78.3,14.8z"/>
	<path fill="#FFFFFF" d="M93.6,8.2l-1.4,2.1v2.1c0,1,0.1,1.6,0.2,1.8s0.4,0.3,1,0.4c0,0,0,0,0,0.1c0,0.1,0,0.1,0,0.1
		c0,0,0,0.1-0.1,0.1c-0.4-0.1-0.9-0.1-1.6-0.1c-0.8,0-1.4,0-1.9,0.1c0,0-0.1,0-0.1-0.1c0,0,0-0.1,0-0.1c0,0,0-0.1,0-0.1
		c0.6-0.1,0.9-0.2,1-0.4c0.1-0.2,0.2-0.8,0.2-1.8v-1.9L90,8.5c-0.6-1.1-1.1-1.7-1.4-2c-0.3-0.3-0.7-0.5-1.3-0.5c0,0,0,0-0.1-0.1
		c0,0,0-0.1,0-0.1c0,0,0-0.1,0.1,0c0.4,0.1,1,0.1,1.9,0.1c0.6,0,1.2,0,1.6-0.1c0,0,0.1,0,0.1,0.1c0,0,0,0.1,0,0.1c0,0,0,0.1,0,0.1
		c-0.5,0-0.7,0.2-0.7,0.4c0,0.2,0.4,0.9,1.1,2.1L92,9.8l1.1-1.7c0.7-1.1,1-1.7,1-1.8S93.9,6,93.5,5.9c0,0,0,0-0.1-0.1
		c0,0,0-0.1,0-0.1c0,0,0-0.1,0.1,0c0.4,0.1,0.9,0.1,1.6,0.1c0.3,0,0.7,0,1.2-0.1c0,0,0.1,0,0.1,0.1c0,0,0,0.1,0,0.1
		c0,0,0,0.1-0.1,0.1c-0.5,0-0.9,0.2-1.2,0.5C94.7,6.6,94.3,7.2,93.6,8.2z"/>
	<path fill="#FFFFFF" d="M102.5,15c-1.3,0-2.4-0.5-3.3-1.4c-0.8-0.9-1.3-2-1.3-3.2c0-1.2,0.4-2.3,1.3-3.3c1-1.1,2.1-1.6,3.5-1.6
		c1.3,0,2.4,0.5,3.3,1.4c0.8,0.9,1.3,2,1.3,3.2c0,1.2-0.5,2.3-1.4,3.3C105.1,14.5,103.9,15,102.5,15z M102.5,5.9
		c-1,0-1.8,0.4-2.4,1.1c-0.6,0.7-1,1.7-1,3c0,1.5,0.4,2.6,1.2,3.5c0.7,0.8,1.5,1.2,2.5,1.2s1.8-0.4,2.4-1.1c0.6-0.7,0.9-1.7,0.9-2.9
		c0-1.4-0.4-2.6-1.2-3.5C104.3,6.3,103.5,5.9,102.5,5.9z"/>
	<path fill="#FFFFFF" d="M118.1,8v3.5c0,1-0.3,1.8-0.9,2.5c-0.6,0.7-1.5,1-2.6,1c-1,0-1.8-0.3-2.5-1c-0.7-0.7-1-1.6-1-2.6V8.2
		c0-1-0.1-1.7-0.2-1.9c-0.1-0.2-0.4-0.3-1-0.4c0,0,0,0-0.1-0.1c0,0,0-0.1,0-0.1c0,0,0-0.1,0.1-0.1c0.5,0.1,1.1,0.1,1.9,0.1
		c0.6,0,1.2,0,1.6-0.1c0,0,0.1,0,0.1,0.1c0,0,0,0.1,0,0.1c0,0,0,0.1,0,0.1c-0.6,0.1-0.9,0.2-1,0.4c-0.1,0.2-0.2,0.8-0.2,1.8v3
		c0,1,0.3,1.8,0.9,2.4c0.5,0.5,1.1,0.8,1.9,0.8c1.8,0,2.6-1,2.6-3V8c0-0.9-0.1-1.4-0.2-1.7S117,6,116.4,5.9c0,0,0,0-0.1-0.1
		c0,0,0-0.1,0-0.1c0,0,0-0.1,0.1-0.1c0.5,0.1,1,0.1,1.6,0.1c0.5,0,0.9,0,1.3-0.1c0,0,0.1,0,0.1,0.1c0,0,0,0.1,0,0.1
		c0,0,0,0.1-0.1,0.1c-0.6,0.1-0.9,0.2-1.1,0.5C118.2,6.6,118.1,7.2,118.1,8z"/>
	<path fill="#FFFFFF" d="M130.7,8.2v4.2c0,1.2,0,2,0.1,2.6c0,0,0,0-0.1,0.1c-0.1,0-0.1,0-0.1,0l-6.3-7.2v4.6c0,1,0.1,1.6,0.2,1.8
		c0.1,0.3,0.5,0.4,1,0.4c0,0,0,0,0,0.1c0,0.1,0,0.1,0,0.1c0,0,0,0.1-0.1,0.1c-0.4-0.1-0.8-0.1-1.3-0.1c-0.6,0-1.2,0-1.6,0.1
		c0,0-0.1,0-0.1-0.1c0,0,0-0.1,0-0.1c0-0.1,0-0.1,0-0.1c0.6-0.1,0.9-0.2,1-0.4s0.2-0.8,0.2-1.8V7.5c0-0.3-0.2-0.6-0.5-1
		c-0.3-0.3-0.6-0.5-0.9-0.6c0,0,0,0,0-0.1c0,0,0-0.1,0-0.1c0,0,0-0.1,0.1-0.1c0.5,0.1,1.1,0.1,1.8,0.1l6.1,7V8.2
		c0-1-0.1-1.6-0.2-1.8c-0.1-0.2-0.5-0.4-1-0.4c0,0,0,0,0-0.1c0,0,0-0.1,0-0.1c0,0,0-0.1,0.1-0.1c0.4,0.1,1,0.1,1.6,0.1
		c0.4,0,0.9,0,1.3-0.1c0,0,0.1,0,0.1,0.1c0,0,0,0.1,0,0.1c0,0,0,0.1-0.1,0.1c-0.6,0.1-0.9,0.2-1,0.5C130.8,6.6,130.7,7.2,130.7,8.2z
		"/>
	<path fill="#FFFFFF" d="M142.3,13.1c0,0.5,0.1,0.8,0.2,0.9c-1.2,0.7-2.3,1-3.3,1c-1.4,0-2.6-0.5-3.4-1.4c-0.8-0.9-1.2-1.9-1.2-3.2
		c0-1.2,0.5-2.4,1.4-3.4c1-1.1,2.1-1.6,3.5-1.6c0.5,0,1.1,0.1,1.7,0.3c0.5,0.2,0.8,0.4,1,0.5c0.1,0,0.1,0.3,0.1,0.7
		c0,0.4,0,0.8,0,1.2c0,0,0,0.1-0.1,0.1c-0.1,0-0.1,0-0.1,0c0-0.6-0.3-1.1-0.8-1.6c-0.6-0.5-1.3-0.8-2.1-0.8c-1,0-1.8,0.4-2.4,1.1
		c-0.6,0.7-1,1.7-1,3c0,1.5,0.4,2.6,1.1,3.5c0.7,0.8,1.5,1.2,2.5,1.2c1,0,1.6-0.2,1.8-0.7c0.1-0.2,0.1-0.5,0.1-0.9
		c0-0.9-0.1-1.5-0.2-1.7c-0.1-0.2-0.5-0.3-1.2-0.4c0,0,0,0-0.1-0.1s0-0.1,0-0.1c0,0,0-0.1,0.1-0.1c0.3,0.1,1,0.1,2.1,0.1
		c0.6,0,1.2,0,1.6-0.1c0,0,0.1,0,0.1,0.1c0,0,0,0.1,0,0.1c0,0,0,0.1-0.1,0.1c-0.6,0-0.9,0.2-1,0.4C142.3,11.6,142.3,12.2,142.3,13.1
		z"/>
	<path fill="#FFFFFF" d="M159.4,8v3.5c0,1-0.3,1.8-0.9,2.5c-0.6,0.7-1.5,1-2.6,1c-1,0-1.8-0.3-2.5-1c-0.7-0.7-1-1.6-1-2.6V8.2
		c0-1-0.1-1.7-0.2-1.9c-0.1-0.2-0.4-0.3-1-0.4c0,0,0,0-0.1-0.1c0,0,0-0.1,0-0.1c0,0,0-0.1,0.1-0.1c0.5,0.1,1.1,0.1,1.9,0.1
		c0.6,0,1.2,0,1.6-0.1c0,0,0.1,0,0.1,0.1c0,0,0,0.1,0,0.1c0,0,0,0.1,0,0.1c-0.6,0.1-0.9,0.2-1,0.4c-0.1,0.2-0.2,0.8-0.2,1.8v3
		c0,1,0.3,1.8,0.9,2.4c0.5,0.5,1.1,0.8,1.9,0.8c1.8,0,2.6-1,2.6-3V8c0-0.9-0.1-1.4-0.2-1.7s-0.5-0.4-1.1-0.4c0,0,0,0-0.1-0.1
		c0,0,0-0.1,0-0.1c0,0,0-0.1,0.1-0.1c0.4,0.1,1,0.1,1.6,0.1c0.5,0,0.9,0,1.3-0.1c0,0,0.1,0,0.1,0.1c0,0,0,0.1,0,0.1
		c0,0,0,0.1-0.1,0.1c-0.6,0.1-0.9,0.2-1.1,0.5C159.5,6.6,159.4,7.2,159.4,8z"/>
	<path fill="#FFFFFF" d="M172.1,8.2v4.2c0,1.2,0,2,0.1,2.6c0,0,0,0-0.1,0.1c-0.1,0-0.1,0-0.1,0l-6.3-7.2v4.6c0,1,0.1,1.6,0.2,1.8
		c0.1,0.3,0.5,0.4,1,0.4c0,0,0,0,0,0.1c0,0.1,0,0.1,0,0.1c0,0,0,0.1-0.1,0.1c-0.4-0.1-0.8-0.1-1.3-0.1c-0.6,0-1.2,0-1.6,0.1
		c0,0-0.1,0-0.1-0.1c0,0,0-0.1,0-0.1c0-0.1,0-0.1,0-0.1c0.6-0.1,0.9-0.2,1-0.4c0.1-0.2,0.2-0.8,0.2-1.8V7.5c0-0.3-0.2-0.6-0.5-1
		c-0.3-0.3-0.6-0.5-0.9-0.6c0,0,0,0,0-0.1c0,0,0-0.1,0-0.1c0,0,0-0.1,0.1-0.1c0.5,0.1,1.1,0.1,1.8,0.1l6.1,7V8.2
		c0-1-0.1-1.6-0.2-1.8c-0.1-0.2-0.5-0.4-1-0.4c0,0,0,0,0-0.1c0,0,0-0.1,0-0.1c0,0,0-0.1,0.1-0.1c0.4,0.1,1,0.1,1.6,0.1
		c0.4,0,0.9,0,1.3-0.1c0,0,0.1,0,0.1,0.1c0,0,0,0.1,0,0.1c0,0,0,0.1-0.1,0.1c-0.6,0.1-0.9,0.2-1,0.5C172.1,6.6,172.1,7.2,172.1,8.2z
		"/>
	<path fill="#FFFFFF" d="M178.8,14.8c-0.8,0-1.4,0-1.9,0.1c0,0-0.1,0-0.1-0.1c0,0,0-0.1,0-0.1c0-0.1,0-0.1,0-0.1
		c0.6-0.1,0.9-0.2,1-0.4s0.2-0.8,0.2-1.8V8.2c0-1-0.1-1.6-0.2-1.9c-0.1-0.2-0.4-0.3-1-0.4c0,0,0,0,0-0.1s0-0.1,0-0.1
		c0,0,0-0.1,0.1-0.1c0.5,0.1,1.1,0.1,1.9,0.1c0.6,0,1.2,0,1.6-0.1c0,0,0.1,0,0.1,0.1c0,0,0,0.1,0,0.1c0,0,0,0.1-0.1,0.1
		c-0.6,0.1-0.9,0.2-1,0.4c-0.1,0.2-0.2,0.8-0.2,1.8v4.2c0,1,0.1,1.6,0.2,1.8c0.1,0.2,0.4,0.3,1,0.4c0,0,0,0,0.1,0.1
		c0,0.1,0,0.1,0,0.1c0,0,0,0.1-0.1,0.1C179.9,14.8,179.4,14.8,178.8,14.8z"/>
	<path fill="#FFFFFF" d="M191,8.2l-2.8,6.8c0,0-0.1,0.1-0.1,0.1c-0.1,0-0.1,0-0.1-0.1l-2.6-6.7c-0.4-0.9-0.6-1.5-0.8-1.7
		c-0.2-0.3-0.6-0.5-1.1-0.5c0,0,0,0,0-0.1c0,0,0-0.1,0-0.1c0,0,0-0.1,0.1-0.1c0.4,0.1,0.9,0.1,1.5,0.1c0.9,0,1.5,0,2-0.1
		c0,0,0.1,0,0.1,0c0,0,0,0.1,0,0.1c0,0,0,0.1-0.1,0.1c-0.4,0.1-0.6,0.1-0.7,0.1c-0.1,0.1-0.2,0.2-0.2,0.3c0,0.3,0.2,0.8,0.5,1.8
		l1.9,5.1l2.1-5.3c0.3-0.8,0.5-1.3,0.5-1.6c0-0.3-0.3-0.4-0.8-0.5c0,0,0,0,0-0.1c0,0,0-0.1,0-0.1c0,0,0-0.1,0.1-0.1
		c0.4,0.1,0.8,0.1,1.2,0.1c0.4,0,0.8,0,1.3-0.1c0,0,0.1,0,0.1,0.1c0,0,0,0.1,0,0.1c0,0,0,0.1-0.1,0.1c-0.4,0.1-0.8,0.2-1,0.5
		C191.7,6.7,191.4,7.2,191,8.2z"/>
	<path fill="#FFFFFF" d="M201.6,14.5c-0.1,0.2-0.2,0.3-0.4,0.3c-0.1,0-0.4,0-0.9,0s-0.9,0-1.3,0c-1.7,0-2.8,0-3.5,0.1
		c0,0-0.1,0-0.1-0.1c0,0,0-0.1,0-0.1c0,0,0-0.1,0-0.1c0.5-0.1,0.8-0.1,0.9-0.2c0.2-0.1,0.3-0.3,0.3-0.6c0-0.2,0.1-0.7,0.1-1.5V8.2
		c0-0.8,0-1.3-0.1-1.5c-0.1-0.3-0.2-0.5-0.3-0.6c-0.1-0.1-0.4-0.1-0.9-0.2c0,0,0,0,0-0.1c0,0,0-0.1,0-0.1c0,0,0-0.1,0.1-0.1
		c0.8,0.1,2,0.1,3.5,0.1c1,0,1.9,0,2.6-0.1c-0.1,0.2-0.1,0.5-0.1,0.8c0,0.3,0,0.5,0,0.5c0,0-0.1,0-0.1,0c-0.1,0-0.1,0-0.1,0
		c-0.1-0.3-0.2-0.5-0.4-0.6c-0.3-0.1-0.8-0.2-1.6-0.2H198c0,0.3-0.1,0.9-0.1,1.9v1.8h1.3c0.6,0,0.8,0,0.8,0c0.3,0,0.5-0.2,0.6-0.5
		c0,0,0,0,0.1,0c0.1,0,0.1,0,0.1,0c-0.1,0.2-0.1,0.5-0.1,0.9c0,0.3,0,0.5,0,0.5c0,0,0,0-0.1,0s-0.1,0-0.1,0c0-0.2-0.1-0.4-0.3-0.5
		c-0.2-0.1-0.5-0.1-1.1-0.1h-1.3v2c0,0.9,0.1,1.4,0.2,1.7c0.1,0.2,0.3,0.3,0.6,0.3h0.7c0.9,0,1.5-0.1,1.8-0.2
		c0.2-0.1,0.4-0.4,0.5-0.9c0,0,0,0,0.1,0c0.1,0,0.1,0,0.1,0.1C201.8,13.8,201.7,14.3,201.6,14.5z"/>
	<path fill="#FFFFFF" d="M213.7,15.1c-1.4,0-2.5-0.5-3.4-1.4c-0.7-0.8-1.3-1.8-1.6-3c-0.3,0.1-0.7,0.1-1,0.1c-0.2,0-0.4,0-0.5,0v1.6
		c0,1,0.1,1.6,0.2,1.8c0.1,0.2,0.4,0.3,1,0.4c0,0,0,0,0,0.1c0,0.1,0,0.1,0,0.1c0,0,0,0.1-0.1,0.1c-0.4-0.1-0.9-0.1-1.6-0.1
		c-0.8,0-1.4,0-1.9,0.1c0,0-0.1,0-0.1-0.1c0,0,0-0.1,0-0.1c0,0,0-0.1,0-0.1c0.6-0.1,0.9-0.2,1-0.4s0.2-0.8,0.2-1.8V8.2
		c0-0.9,0-1.4-0.1-1.6c-0.1-0.3-0.3-0.4-0.6-0.4c-0.1,0-0.3,0-0.5,0.1c0,0-0.1,0-0.1-0.1c0-0.1,0-0.1,0.1-0.1
		c0.5-0.2,1.5-0.2,3.2-0.2c1,0,1.8,0.2,2.4,0.5c0.7,0.4,1,0.9,1,1.7c0,0.5-0.1,0.9-0.4,1.3c-0.3,0.5-0.8,0.9-1.4,1.2
		c0.4,1.1,1,2,1.8,3c0.9,1,1.6,1.5,2.3,1.5c0,0,0,0,0.1,0.1C213.8,15,213.8,15.1,213.7,15.1z M207.9,6c-0.1,0-0.3,0-0.6,0
		c-0.1,0.3-0.1,0.9-0.1,2v2.3h0.5c1.7,0,2.6-0.6,2.6-1.9C210.3,6.8,209.5,6,207.9,6z"/>
	<path fill="#FFFFFF" d="M218.7,15c-0.9,0-1.6-0.3-2.3-0.9c0,0,0-0.6,0.1-1.8c0,0,0,0,0.1,0c0.1,0,0.1,0,0.1,0
		c0,0.7,0.2,1.3,0.6,1.7s0.9,0.6,1.5,0.6c0.5,0,0.9-0.1,1.2-0.4c0.3-0.3,0.5-0.7,0.5-1.2c0-0.6-0.3-1.2-1-1.7
		c-0.6-0.4-1.2-0.8-1.8-1.3c-0.7-0.5-1-1.2-1-1.9c0-0.7,0.2-1.3,0.7-1.8c0.5-0.5,1.1-0.8,1.8-0.8c0.6,0,1.2,0.1,1.7,0.4
		c0.1,0.1,0.2,0.6,0.2,1.5c0,0,0,0-0.1,0s-0.1,0-0.1,0c-0.2-1-0.7-1.6-1.7-1.6c-0.4,0-0.8,0.1-1.1,0.4c-0.3,0.3-0.5,0.6-0.5,1
		c0,0.6,0.3,1.2,1,1.7c0.6,0.4,1.2,0.8,1.8,1.2c0.6,0.6,1,1.2,1,2c0,0.8-0.2,1.5-0.7,2C220,14.8,219.4,15,218.7,15z"/>
	<path fill="#FFFFFF" d="M226.7,14.8c-0.8,0-1.4,0-1.9,0.1c0,0-0.1,0-0.1-0.1c0,0,0-0.1,0-0.1c0-0.1,0-0.1,0-0.1
		c0.6-0.1,0.9-0.2,1-0.4s0.2-0.8,0.2-1.8V8.2c0-1-0.1-1.6-0.2-1.9c-0.1-0.2-0.4-0.3-1-0.4c0,0,0,0,0-0.1s0-0.1,0-0.1
		c0,0,0-0.1,0.1-0.1c0.5,0.1,1.1,0.1,1.9,0.1c0.6,0,1.2,0,1.6-0.1c0,0,0.1,0,0.1,0.1c0,0,0,0.1,0,0.1c0,0,0,0.1-0.1,0.1
		c-0.6,0.1-0.9,0.2-1,0.4c-0.1,0.2-0.2,0.8-0.2,1.8v4.2c0,1,0.1,1.6,0.2,1.8c0.1,0.2,0.4,0.3,1,0.4c0,0,0,0,0.1,0.1
		c0,0.1,0,0.1,0,0.1c0,0,0,0.1-0.1,0.1C227.8,14.8,227.3,14.8,226.7,14.8z"/>
	<path fill="#FFFFFF" d="M240.1,6.5c0,0.4,0,0.6,0,0.7c0,0,0,0-0.1,0c-0.1,0-0.1,0-0.1,0c-0.1-0.3-0.2-0.6-0.4-0.7
		c-0.3-0.2-0.8-0.2-1.6-0.2h-1.3v6c0,1,0.1,1.6,0.2,1.8c0.1,0.2,0.4,0.3,1,0.4c0,0,0,0,0.1,0.1c0,0.1,0,0.1,0,0.1c0,0,0,0.1-0.1,0.1
		c-0.4-0.1-0.9-0.1-1.6-0.1c-0.8,0-1.4,0-1.9,0.1c0,0-0.1,0-0.1-0.1c0,0,0-0.1,0-0.1c0-0.1,0-0.1,0.1-0.1c0.6-0.1,0.9-0.2,1-0.4
		c0.1-0.2,0.2-0.8,0.2-1.8v-6H234c-0.8,0-1.3,0.1-1.6,0.2c-0.2,0.1-0.4,0.4-0.5,0.7c-0.1,0-0.1,0-0.2,0c0-0.2,0.1-0.6,0.1-1.2
		c0-0.3,0-0.5-0.1-0.7c0.1,0,0.1,0,0.2,0c0.1,0.2,0.2,0.4,0.4,0.4s0.7,0.1,1.7,0.1h3.9c0.9,0,1.5,0,1.7-0.1c0.2,0,0.3-0.2,0.4-0.4
		c0,0,0,0,0.1,0c0.1,0,0.1,0,0.1,0.1C240.1,5.7,240.1,6.1,240.1,6.5z"/>
	<path fill="#FFFFFF" d="M249.6,8.2l-1.4,2.1v2.1c0,1,0.1,1.6,0.2,1.8s0.4,0.3,1,0.4c0,0,0,0,0,0.1c0,0.1,0,0.1,0,0.1
		c0,0,0,0.1-0.1,0.1c-0.4-0.1-0.9-0.1-1.6-0.1c-0.8,0-1.4,0-1.9,0.1c0,0-0.1,0-0.1-0.1c0,0,0-0.1,0-0.1c0,0,0-0.1,0-0.1
		c0.6-0.1,0.9-0.2,1-0.4c0.1-0.2,0.2-0.8,0.2-1.8v-1.9L246,8.5c-0.6-1.1-1.1-1.7-1.4-2c-0.3-0.3-0.7-0.5-1.3-0.5c0,0,0,0-0.1-0.1
		c0,0,0-0.1,0-0.1c0,0,0-0.1,0.1,0c0.4,0.1,1,0.1,1.9,0.1c0.6,0,1.2,0,1.6-0.1c0,0,0.1,0,0.1,0.1c0,0,0,0.1,0,0.1c0,0,0,0.1,0,0.1
		c-0.5,0-0.7,0.2-0.7,0.4c0,0.2,0.4,0.9,1.1,2.1l0.9,1.4l1.1-1.7c0.7-1.1,1-1.7,1-1.8s-0.2-0.3-0.7-0.4c0,0,0,0-0.1-0.1
		c0,0,0-0.1,0-0.1c0,0,0-0.1,0.1,0c0.4,0.1,0.9,0.1,1.6,0.1c0.3,0,0.7,0,1.2-0.1c0,0,0.1,0,0.1,0.1c0,0,0,0.1,0,0.1
		c0,0,0,0.1-0.1,0.1c-0.5,0-0.9,0.2-1.2,0.5C250.7,6.6,250.2,7.2,249.6,8.2z"/>
</g>
</svg>
