<?xml version="1.0" encoding="utf-8"?>
<!-- Generator: Adobe Illustrator 19.2.1, SVG Export Plug-In . SVG Version: 6.00 Build 0)  -->
<svg version="1.1" id="Layer_1" xmlns="http://www.w3.org/2000/svg" xmlns:xlink="http://www.w3.org/1999/xlink" x="0px" y="0px"
	 viewBox="0 0 720 216" style="enable-background:new 0 0 720 216;" xml:space="preserve">
<style type="text/css">
	.st0{fill:#FFFFFF;}
</style>
<g>
	<path class="st0" d="M55.8,89.6c-2.7,0-4.1-0.1-6.3-0.1c-2.3,0-5,0.1-7.8,0.1c-0.2,0-0.2-0.6,0.1-0.6c2.5-0.2,3.8-0.4,4.6-0.9
		c0.8-0.4,1.3-1.8,1.3-14v-9c0-12.1-0.5-13.5-1.3-14c-0.7-0.4-2.1-0.6-4.6-0.9c-0.2-0.1-0.2-0.6-0.1-0.6c2.8,0,5.5,0.1,7.8,0.1
		c2.3,0,3.6-0.1,6.3-0.1c8.2,0,11.7,4.9,11.7,8.7c0,3.8-2.6,6.9-6.5,8.9c6.6,1.5,10.2,5.3,10.2,10.5C71.1,83.8,66.6,89.6,55.8,89.6z
		 M55.7,50.9c-2,0-3.8,0.2-3.9,0.5c-0.2,0.2-0.4,2.8-0.4,10.1c0,3.6,0.1,5.4,0.2,5.5c0.2,0.2,1.8,0.4,4.2,0.4c4.9,0,7.4-3.1,7.4-7.8
		C63.1,53.6,59.1,50.9,55.7,50.9z M55,68.6c-2,0-3.4,0.1-3.5,0.2c-0.1,0.1-0.2,1.5-0.2,8.7c0,6.1,0.3,9.1,0.7,9.6
		c0.4,0.6,2.8,1.1,5.5,1.1c5,0,9.1-3.3,9.1-9C66.7,72.7,61.6,68.6,55,68.6z"/>
	<path class="st0" d="M124.5,89.4c-3.8,0-5.5-0.5-7.9-2.1c-3.1-2.2-6.5-6.8-11.4-15.2c-3.1,0.1-5.6,0.1-8-0.1v2
		c0,12.1,0.6,13.5,1.4,14c0.8,0.4,2.6,0.6,5.3,0.9c0.3,0.1,0.3,0.6,0.1,0.6c-3,0-13.2,0-16.1,0c-0.2,0-0.2-0.6,0.1-0.6
		c2.4-0.2,3.5-0.4,4.2-0.9c0.7-0.4,1.3-1.8,1.3-14v-9c0-12.1-0.6-13.5-1.3-14c-0.7-0.4-1.8-0.6-4.2-0.9c-0.2-0.1-0.2-0.6-0.1-0.6
		c2.7,0,5.2,0.1,7.5,0.1c2.3,0,4.7-0.1,7.4-0.1c9.2,0,13.1,5.1,13.1,9.8c0,4.9-3.1,8.7-7.4,11.3c8.2,12.3,13.3,17.6,17.6,17.6
		c0.6,0,1.4,0,1.8-0.1c0.2,0,0.2,0.7,0.1,0.7C126.9,89.4,126,89.4,124.5,89.4z M102.8,51.1c-2.1,0-4.7,0.3-4.9,0.6
		c-0.2,0.4-0.7,4.6-0.7,13.5c0,3.7,0.1,4.9,0.4,5.1c0.5,0.4,2.9,0.7,5.8,0.7c5,0,8.1-4.4,8.1-9.2C111.4,55.9,108.6,51.1,102.8,51.1z
		"/>
	<path class="st0" d="M137.2,89.6c-0.2,0-0.2-0.6,0.1-0.6c2.4-0.2,3.9-0.4,4.7-0.9c0.8-0.4,1.3-1.8,1.3-14v-9
		c0-12.1-0.5-13.5-1.3-14c-0.7-0.4-2.3-0.6-4.7-0.9c-0.3-0.1-0.3-0.6-0.1-0.6c3,0,13.1,0,16,0c0.2,0,0.2,0.6-0.1,0.6
		c-2.4,0.2-4,0.4-4.7,0.9c-0.7,0.4-1.3,1.8-1.3,14v9c0,12.1,0.6,13.5,1.3,14c0.7,0.4,2.3,0.6,4.7,0.9c0.2,0.1,0.2,0.6,0.1,0.6
		C150.3,89.6,140.2,89.6,137.2,89.6z"/>
	<path class="st0" d="M208.2,71.3c-2.4,0.3-3.2,0.4-3.9,0.9c-0.5,0.4-0.9,1.6-0.7,13.8v0.6c-3.4,2-8.1,3.4-13.2,3.4
		c-11.7,0-21.3-8.9-21.3-19.8c0-10.5,7.4-20.8,21.1-20.8c6.5,0,10.1,2.2,12.2,1.7c0.3-0.1,0.4,0.1,0.4,0.2c0.1,2.2,0.3,5.5,0.3,8.9
		c0,0.3-0.7,0.3-0.7-0.1c-0.2-1.7-1.1-3.7-2.4-4.9c-2.2-2.1-6.3-4.3-10.5-4.3c-11.1,0-16,8.8-16,17.5c0,10.3,7.3,19.8,19,19.8
		c2.7,0,5.5-0.6,7.3-1.4c-0.1-12.9-0.4-14.3-0.9-14.5c-0.7-0.4-2.3-0.6-4.7-0.9c-0.3,0-0.3-0.6-0.1-0.6c3,0,11.4,0,14.3,0
		C208.4,70.7,208.5,71.3,208.2,71.3z"/>
	<path class="st0" d="M252.3,89.6c-0.2,0-0.2-0.6,0.1-0.6c2.4-0.2,3.4-0.4,4.2-0.9c0.7-0.4,1.3-1.8,1.3-14V70H234v4.1
		c0,12.1,0.5,13.5,1.3,14c0.7,0.4,1.8,0.6,4.2,0.9c0.2,0.1,0.2,0.6,0.1,0.6c-2.9,0-12.1,0-14.9,0c-0.2,0-0.2-0.6,0.1-0.6
		c2.4-0.2,3.5-0.4,4.2-0.9c0.7-0.4,1.3-1.8,1.3-14v-9c0-12.1-0.6-13.5-1.3-14c-0.7-0.4-1.8-0.6-4.2-0.9c-0.2-0.1-0.2-0.6-0.1-0.6
		c2.9,0,12.1,0,14.9,0c0.2,0,0.2,0.6-0.1,0.6c-2.4,0.2-3.4,0.4-4.2,0.9c-0.8,0.4-1.3,1.8-1.3,14v3.3h23.9v-3.3
		c0-12.1-0.6-13.5-1.3-14c-0.8-0.4-1.8-0.6-4.2-0.9c-0.2-0.1-0.2-0.6-0.1-0.6c2.9,0,12.1,0,14.9,0c0.2,0,0.2,0.6-0.1,0.6
		c-2.4,0.2-3.4,0.4-4.2,0.9c-0.7,0.4-1.3,1.8-1.3,14v9c0,12.1,0.6,13.5,1.3,14c0.8,0.4,1.8,0.6,4.2,0.9c0.2,0.1,0.2,0.6,0.1,0.6
		C264.3,89.6,255.2,89.6,252.3,89.6z"/>
	<path class="st0" d="M304.5,89.6c-0.2,0-0.2-0.6,0-0.6c1.9-0.2,3.4-0.2,3.4-1.2c0-1-1.2-4.4-4.9-13.6l-0.1-0.2h-12.5l-0.1,0.2
		c-3.1,8.3-4.2,12.1-4.2,13.3c0,1.1,1.4,1.2,3.9,1.5c0.2,0.1,0.2,0.6,0,0.6c-1.8,0-8.7,0-11.6,0c-0.2,0-0.3-0.6,0-0.6
		c1.8-0.2,3-0.4,3.9-1c0.6-0.4,1.7-1.7,6.1-13.8l3.3-9c1.9-5.2,3.9-10.5,5.4-15.3c0.2-0.4,0.7-0.4,0.8,0c1.8,5.3,3.4,9.7,5.7,15.3
		l3.4,9c4.8,12.1,5.6,13.4,6.5,14c1,0.6,2,0.7,3.7,0.9c0.2,0.1,0.2,0.6,0,0.6C314.4,89.6,307.4,89.6,304.5,89.6z M296.7,56.7
		L291,72.4h11.4L296.7,56.7z"/>
	<path class="st0" d="M365.9,89.6c-0.2,0-0.3-0.6,0-0.6c1.7-0.2,3-0.2,3.6-0.7c0.6-0.4,1-2-0.4-14.1l-1.4-14.5l-14.1,30.1
		c-0.1,0.1-0.4,0.2-0.6-0.1l-15.2-29.8l-1,13.9c-1.1,12.4-0.3,13.8,0.4,14.3c0.6,0.5,2.3,0.6,3.9,0.8c0.2,0.1,0.2,0.6,0,0.6
		c-3,0-10,0-13,0c-0.2,0-0.1-0.6,0.1-0.6c2.5-0.2,3.8-0.4,4.5-1c0.5-0.4,1.3-1.7,2.2-13.8l0.6-9c0.3-5.2,0.7-10.5,0.8-15.3
		c0.1-0.3,0.7-0.4,0.8-0.1l17.3,34.2l16-34.2c0.1-0.2,0.7-0.2,0.7,0.1c0.3,5.3,0.6,9.7,1.2,15.3l0.9,9c1.4,12.1,1.7,13.5,2.6,14
		c0.8,0.4,1.8,0.6,4.3,0.9c0.2,0.1,0.4,0.6,0.2,0.6C377.3,89.6,368.7,89.6,365.9,89.6z"/>
	<path class="st0" d="M449.8,50.8c-0.6,0.3-1.4,1.2-5.8,8.6l-3.3,5.5c-1.5,2.4-3,4.8-4.3,7.1v2c0,12.2,0.6,13.6,1.3,14
		c0.7,0.4,2.3,0.6,4.7,0.9c0.2,0.1,0.2,0.6,0.1,0.6c-2.9,0-13.1,0-16,0c-0.2,0-0.2-0.6,0.1-0.6c2.4-0.2,4-0.4,4.7-0.9
		c0.7-0.4,1.3-1.8,1.3-14v-1.8c-1.4-2.4-2.7-4.7-4.4-7.4l-3.4-5.5c-4.7-7.4-5.2-8.4-6-8.7c-1-0.4-1.9-0.4-3.6-0.5
		c-0.3,0-0.2-0.6,0-0.6c2.9,0,10.2,0,13.2,0c0.2,0,0.2,0.6,0,0.6c-1.4,0.1-3,0.1-3.4,0.4c-0.5,0.3,0,1.3,4.5,9.4l6.1,10.3l6.8-11.3
		c4.4-6.9,4.2-7.9,3.8-8.2c-0.5-0.2-2.2-0.4-3.8-0.5c-0.2,0-0.2-0.6,0-0.6c1.8,0,8.7,0,11.7,0c0.2,0,0.2,0.6,0,0.6
		C452,50.4,450.8,50.4,449.8,50.8z"/>
	<path class="st0" d="M484.4,89.9c-11.3,0-20-8.7-20-19.8c0-10.6,8.4-20.8,20.9-20.8c11.3,0,20,8.7,20,19.8
		C505.3,79.7,497,89.9,484.4,89.9z M484.1,51.1c-11,0-15.3,9.3-15.3,17.3c0,10,7,19.9,16.8,19.9c10.9,0,15.2-9.3,15.2-17.3
		C500.9,60.9,493.9,51.1,484.1,51.1z"/>
	<path class="st0" d="M558.9,51.4c-0.5,0.4-1,1.7-1,13.8v10.3c0,7.4-5.5,14.4-15.2,14.4c-9.6,0-15.4-6.3-15.4-14.3V65.1
		c0-12.1-0.6-13.5-1.3-14c-0.7-0.4-1.8-0.6-4.2-0.9c-0.2-0.1-0.2-0.6-0.1-0.6c3,0,12.4,0,15.2,0c0.2,0,0.2,0.6-0.1,0.6
		c-2.4,0.2-3.7,0.4-4.4,0.9c-0.8,0.4-1.3,1.8-1.3,14v9.3c0,7.6,4.9,13,13,13c7.6,0,11.6-5.5,11.6-12.4v-10c0-12.1-0.6-13.3-1-13.8
		c-0.7-0.6-2.2-0.8-4.5-1c-0.3-0.1-0.2-0.6,0-0.6c2.9,0,10.2,0,13.1,0c0.2,0,0.2,0.6,0,0.6C560.8,50.6,559.6,50.8,558.9,51.4z"/>
	<path class="st0" d="M618,51.7c-0.5,0.5-1.2,1.4-1.1,13.5l0.1,9c0.1,5.2,0,10.6,0.3,15.4c0.1,0.3-0.7,0.4-1,0.1l-30.5-32.5l0.2,17
		c0.1,11.2,0.9,12.9,1.7,13.6c0.6,0.4,2.8,1,4.5,1c0.2,0,0.2,0.8,0,0.8c-3.2,0-11.3,0-14.1,0c-0.2,0-0.2-0.7,0-0.8
		c2.5-0.2,3.9-0.6,4.5-1.2c0.5-0.5,1.2-1.4,1-13.5l-0.1-9c-0.1-5.2-0.1-10.6-0.4-15.4c0-0.3,0.9-0.4,1.1-0.1l30.6,32.7l-0.2-17.2
		c-0.1-12.1-1-13-1.7-13.6c-0.7-0.6-2.3-0.9-4.9-1c-0.2-0.1-0.2-0.8,0-0.8c3,0,11.4,0,14.3,0c0.2,0,0.2,0.7,0,0.8
		C619.9,50.8,618.7,51.1,618,51.7z"/>
	<path class="st0" d="M678.3,71.3c-2.4,0.3-3.2,0.4-3.9,0.9c-0.5,0.4-0.9,1.6-0.7,13.8v0.6c-3.4,2-8.1,3.4-13.2,3.4
		c-11.7,0-21.3-8.9-21.3-19.8c0-10.5,7.4-20.8,21.1-20.8c6.5,0,10.1,2.2,12.2,1.7c0.3-0.1,0.4,0.1,0.4,0.2c0.1,2.2,0.3,5.5,0.3,8.9
		c0,0.3-0.7,0.3-0.7-0.1c-0.2-1.7-1.1-3.7-2.4-4.9c-2.2-2.1-6.3-4.3-10.5-4.3c-11.1,0-16,8.8-16,17.5c0,10.3,7.3,19.8,19,19.8
		c2.7,0,5.5-0.6,7.3-1.4c-0.1-12.9-0.4-14.3-0.9-14.5c-0.7-0.4-2.3-0.6-4.7-0.9c-0.3,0-0.3-0.6-0.1-0.6c3,0,11.4,0,14.3,0
		C678.5,70.7,678.6,71.3,678.3,71.3z"/>
	<path class="st0" d="M187,140.7c-0.4,0.3-0.8,1-0.8,9.1v7c0,5-4,9.8-10.5,9.8c-6.5,0-10.7-4.3-10.7-9.7v-7.1c0-8.2-0.3-9-0.9-9.2
		c-0.5-0.3-1.2-0.5-2.8-0.7c-0.2,0-0.2-0.5,0-0.5c3.9,0,6.8,0,10.8,0c0.1,0,0.1,0.5,0,0.5c-1.6,0.2-2.5,0.4-3,0.7
		c-0.5,0.3-0.9,1-0.9,9.2v6c0,5.2,3.4,8.8,8.6,8.8c5.1,0,7.7-3.8,7.7-8.4v-6.5c0-8.2-0.4-8.8-0.8-9.1c-0.5-0.4-1.4-0.6-3.1-0.8
		c-0.2,0-0.1-0.5,0-0.5c4,0,5.4,0,9.3,0c0.1,0,0.2,0.5,0,0.5C188.2,140.1,187.4,140.3,187,140.7z"/>
	<path class="st0" d="M235.9,140.7c-0.4,0.3-0.8,0.9-0.8,9.1l0,6.1c0,3.5,0,7.2,0.2,10.5c0,0.2-0.8,0.3-1,0.1L213.8,145l0.2,10.9
		c0.1,7.6,0.6,8.8,1.2,9.2c0.4,0.3,1.9,0.7,3,0.7c0.2,0,0.1,0.5,0,0.5c-4.2,0-5.9,0-9.9,0c-0.1,0-0.2-0.5,0-0.5
		c1.6-0.2,2.6-0.4,3.1-0.8c0.3-0.3,0.8-0.9,0.7-9.1l-0.1-6.1c0-3.5,0-7.2-0.3-10.5c0-0.2,0.8-0.3,1-0.1l20.6,21.6l-0.2-11.1
		c0-8.2-0.7-8.8-1.1-9.2c-0.5-0.4-1.5-0.6-3.3-0.7c-0.2,0-0.1-0.5,0-0.5c3.9,0,6,0,10,0c0.1,0,0.2,0.5,0,0.5
		C237.1,140.1,236.3,140.3,235.9,140.7z"/>
	<path class="st0" d="M260,166.4c-0.1,0-0.1-0.5,0-0.5c1.6-0.2,2.7-0.4,3.2-0.7c0.5-0.3,0.9-1,0.9-9.2v-6.1c0-8.2-0.4-9-0.9-9.2
		c-0.5-0.3-1.6-0.5-3.2-0.7c-0.2,0-0.2-0.5,0-0.5c3.9,0,7.3,0,11.3,0c0.1,0,0.2,0.5,0,0.5c-1.6,0.2-2.7,0.4-3.2,0.7
		c-0.5,0.3-0.9,1-0.9,9.2v6.1c0,8.2,0.4,8.9,0.9,9.2c0.5,0.3,1.5,0.5,3.2,0.7c0.2,0,0.2,0.5,0,0.5
		C267.4,166.4,263.9,166.4,260,166.4z"/>
	<path class="st0" d="M314.5,140.7c-0.4,0.3-1.2,0.9-4.5,9.1l-2.4,6.1c-1.4,3.5-2.8,7.1-4,10.4c-0.1,0.3-1.4,0.3-1.5,0
		c-1.3-3.6-2.4-6.6-4-10.4l-2.5-6.1c-3-7.3-3.8-8.7-4.5-9.2c-0.6-0.4-1.5-0.6-2.8-0.8c-0.2,0-0.1-0.5,0-0.5c3.3,0,5.8,0,9.8,0
		c0.1,0,0.2,0.5,0,0.5c-1.5,0.2-2.4,0.5-2.4,1.1c0,0.7,0.5,2.5,3,8.8l4.5,12l4.7-12c2.3-5.7,2.6-7.7,2.6-8.6c0-0.8-0.7-1.2-2.5-1.3
		c-0.2,0-0.1-0.5,0-0.5c2.6,0,5.5,0,8.6,0c0.1,0,0.2,0.5,0,0.5C315.7,140,315.1,140.3,314.5,140.7z"/>
	<path class="st0" d="M352.6,165.7c-0.3,0.5-0.8,0.8-1.8,0.8c-2.5,0-5.1-0.1-8.6-0.1c-2.7,0-4,0-7,0.1c-0.1,0-0.1-0.5,0-0.5
		c1.7-0.2,2.4-0.4,2.9-0.7c0.5-0.3,0.9-1,0.9-9.2v-6.1c0-8.2-0.4-9-0.9-9.2c-0.5-0.3-1.2-0.5-2.9-0.7c-0.2,0-0.2-0.5,0-0.5
		c3.3,0,8.1,0.1,10.8,0.1c3.5,0,5,0,6.3-0.2c0.2,0,0.3,0.1,0.3,0.2c-0.1,1.5-0.2,3.1-0.5,5.3c0,0.2-0.5,0.1-0.5-0.1
		c0-1.1-0.1-2-0.7-2.6c-0.7-0.8-2-1.1-5-1.1c-1.6,0-3.2,0-3.6,0.1c-0.1,0.4-0.1,2.1-0.1,4.7v6h3.4c4,0,4.5-0.5,4.8-2
		c0-0.2,0.6-0.1,0.6,0c-0.1,2.3-0.2,3.7-0.2,6c0,0.1-0.6,0.1-0.6,0c0-0.8-0.2-1.6-0.6-2c-0.4-0.4-1-0.7-4-0.7H342v2.8
		c0,5.3,0.4,7.6,0.9,8.2c0.5,0.5,1.4,0.8,3.8,0.8c2.6,0,4-0.5,4.8-1.3c0.6-0.7,1-1.6,1.3-2.9c0-0.3,0.6-0.1,0.5,0.1
		C353.2,163.1,352.9,165.1,352.6,165.7z"/>
	<path class="st0" d="M399.9,166.3c-2.5,0-4-0.3-5.6-1.4c-2.1-1.5-4.4-4.3-7.8-10.1c-2,0.1-3.3,0-4.9,0v1.2c0,8.2,0.4,8.9,0.9,9.2
		c0.5,0.3,1.8,0.5,3.6,0.7c0.2,0,0.2,0.5,0,0.5c-3.9,0-7.4,0-11.3,0c-0.1,0-0.2-0.5,0-0.5c1.6-0.2,2.3-0.4,2.8-0.7
		c0.5-0.3,0.9-1,0.9-9.2v-6.1c0-8.2-0.3-9-0.9-9.2c-0.5-0.3-1.2-0.5-2.8-0.7c-0.2,0-0.2-0.5,0-0.5c1.8,0,3.8,0.1,5.3,0.1
		c1.5,0,3.2-0.1,5-0.1c6.3,0,9.1,3.5,9.1,6.6c0,3.3-2.1,6-5,7.8c5.5,8.3,9.1,11.7,12,11.7c0.4,0,0.9,0,1.2,0c0.2,0,0.2,0.6,0.1,0.6
		C401.7,166.3,400.9,166.3,399.9,166.3z M385.1,140.7c-1.4,0-2.7,0.3-2.9,0.5c-0.3,0.3-0.6,2.6-0.6,8.6c0,2.5,0.1,2.8,0.3,3
		c0.5,0.4,1.6,0.7,3.6,0.7c3.4,0,5.3-2.7,5.3-6C390.8,143.6,389.1,140.7,385.1,140.7z"/>
	<path class="st0" d="M425.2,166.6c-3.9,0-6.4-2-6.5-2.5c-0.3-1.4-0.3-3.6-0.1-5.7c0-0.2,0.6-0.2,0.6,0c0.1,1.6,0.7,3,1.3,3.9
		c1.1,1.6,2.8,2.8,5.3,2.8c3.3,0,5-2.3,5-5c0-6.2-11.1-7.3-11.1-14.1c0-4.3,3.6-7,7.5-7c3.2,0,3.8,1.1,5.3,0.8c0.2,0,0.3,0,0.3,0.1
		c0,1.5,0.1,3.4,0,5.6c0,0.2-0.6,0.2-0.6,0c-0.1-1.3-0.7-2.8-1.5-3.6c-0.9-1-2.2-1.5-3.7-1.5c-2.6,0-4.4,1.6-4.4,4.2
		c0,5.2,11.5,7.4,11.5,14.2C434,164,429.4,166.6,425.2,166.6z"/>
	<path class="st0" d="M456,166.4c-0.1,0-0.1-0.5,0-0.5c1.6-0.2,2.7-0.4,3.2-0.7c0.5-0.3,0.9-1,0.9-9.2v-6.1c0-8.2-0.4-9-0.9-9.2
		c-0.5-0.3-1.6-0.5-3.2-0.7c-0.2,0-0.2-0.5,0-0.5c3.9,0,7.3,0,11.3,0c0.1,0,0.2,0.5,0,0.5c-1.6,0.2-2.7,0.4-3.2,0.7
		c-0.5,0.3-0.9,1-0.9,9.2v6.1c0,8.2,0.4,8.9,0.9,9.2c0.5,0.3,1.5,0.5,3.2,0.7c0.2,0,0.2,0.5,0,0.5C463.4,166.4,460,166.4,456,166.4z
		"/>
	<path class="st0" d="M510.9,145.2c0,0.1-0.6,0.1-0.6-0.1c0-1-0.2-2.2-0.8-2.8c-0.8-0.8-2.8-1.4-7.2-1.4c-0.9,0-1.5,0-1.9,0.1
		c-0.1,0.4-0.2,2.1-0.2,4.7v10.2c0,8.2,0.4,8.9,0.9,9.2c0.5,0.3,1.6,0.5,3.2,0.7c0.2,0,0.2,0.5,0,0.5c-3.9,0-7.3,0-11.3,0
		c-0.1,0-0.1-0.5,0-0.5c1.6-0.2,2.7-0.4,3.2-0.7c0.5-0.3,0.9-1,0.9-9.2v-10.2c0-2.6,0-4.3-0.2-4.7c-0.4,0-1.2-0.1-2.1-0.1
		c-4.3,0-6.2,0.5-7.3,1.4c-0.7,0.6-1.1,1.8-1.3,2.8c0,0.2-0.6,0.1-0.6-0.1c0.3-2.1,0.5-4.4,0.6-5.8c0-0.1,0.1-0.2,0.3-0.2
		c1.5,0.3,4.7,0.5,12,0.5c10,0,11.5-0.3,12.2-0.5c0.2,0,0.3,0.1,0.3,0.2C511.2,140.8,511.1,143,510.9,145.2z"/>
	<path class="st0" d="M552.3,140.4c-0.4,0.2-1.2,0.5-4.2,5.6l-2.3,3.7c-1,1.6-2,3.3-2.9,4.8v1.4c0,8.3,0.4,9,0.9,9.3
		c0.5,0.3,1.6,0.5,3.2,0.7c0.2,0,0.2,0.5,0,0.5c-3.9,0-7.3,0-11.3,0c-0.1,0-0.1-0.5,0-0.5c1.7-0.2,2.7-0.4,3.2-0.7
		c0.5-0.3,0.9-1,0.9-9.3v-1.2c-0.9-1.6-1.8-3.2-3-5l-2.3-3.7c-3.2-5-3.7-5.4-4.3-5.7c-0.7-0.3-1.3-0.4-2.5-0.4c-0.2,0-0.1-0.5,0-0.5
		c4,0,5.4,0,9.4,0c0.1,0,0.2,0.5,0,0.5c-1,0-1.6,0.2-2,0.4c-0.3,0.2-0.3,0.6,2.7,5.3l4.2,7.1l4.3-7c3-4.7,2.5-5.1,2.2-5.4
		c-0.3-0.2-1.1-0.3-2.2-0.4c-0.2,0-0.1-0.5,0-0.5c2.6,0,4.8,0,8.6,0c0.1,0,0.2,0.5,0,0.5C553.7,140,552.9,140.1,552.3,140.4z"/>
</g>
</svg>
